<?xml version="1.0" encoding="UTF-8" standalone="no"?>
<!DOCTYPE svg PUBLIC "-//W3C//DTD SVG 1.1//EN" "http://www.w3.org/Graphics/SVG/1.1/DTD/svg11.dtd">
<svg width="100%" height="100%" viewBox="0 0 80 66" version="1.1" xmlns="http://www.w3.org/2000/svg" xmlns:xlink="http://www.w3.org/1999/xlink" xml:space="preserve" xmlns:serif="http://www.serif.com/" style="fill-rule:evenodd;clip-rule:evenodd;stroke-miterlimit:10;">
    <g transform="matrix(1,0,0,1,-177.176,-81.657)">
        <g transform="matrix(1,0,0,1,187.057,139.991)">
            <path d="M0,-11.42C0.01,-11.26 -0.113,-11.128 -0.369,-11.022L-0.587,-10.94C-0.66,-10.94 -0.837,-10.883 -0.933,-10.955L-0.555,-11.447C-0.349,-11.435 -0.037,-11.613 0,-11.42M65.123,-10.085C65.286,-10.085 65.419,-9.898 65.419,-9.669C65.419,-9.44 65.286,-9.254 65.123,-9.254C64.96,-9.254 64.827,-9.44 64.827,-9.669C64.827,-9.898 64.96,-10.085 65.123,-10.085M62.048,-3.612C62.048,-3.612 60.545,-2.607 59.862,-2.607C59.862,-2.607 59.133,-2.563 59.907,-2.169L61.092,-1.557C61.092,-1.557 61.775,-1.032 62.14,-1.863C62.14,-1.863 63.962,-4.093 64.463,-4.137C64.463,-4.137 65.192,-4.706 65.055,-3.875C65.055,-3.875 65.192,-2.607 65.192,-1.207C65.192,-1.207 65.374,0.324 64.053,0.192L63.096,0.28L64.372,0.761L65.328,1.111C65.328,1.111 66.103,1.636 66.376,0.63C66.376,0.63 66.604,0.411 66.194,-1.469L66.012,-4.88C66.012,-4.88 66.33,-5.711 66.923,-5.143L66.923,-4.574C66.923,-4.574 66.832,-3.962 67.515,-4.618C67.515,-4.618 68.062,-5.143 68.517,-5.143C68.517,-5.143 69.018,-5.58 68.426,-5.755C68.426,-5.755 67.834,-6.455 67.014,-6.236C67.014,-6.236 66.194,-6.236 67.196,-7.023L67.879,-7.548C67.879,-7.548 68.563,-8.029 67.788,-8.335L67.469,-8.641C67.469,-8.641 66.877,-8.816 67.879,-9.691C67.879,-9.691 68.699,-10.478 69.61,-10.609C69.61,-10.609 70.567,-11.353 69.61,-12.315C69.61,-12.315 68.654,-13.408 67.743,-12.752L66.148,-11.921C66.148,-11.921 65.419,-11.44 65.921,-12.184C65.921,-12.184 66.285,-12.84 65.83,-12.927L65.237,-13.365C65.237,-13.365 64.691,-13.802 64.6,-13.102C64.6,-13.102 64.326,-11.747 63.689,-12.14C63.689,-12.14 62.777,-12.402 62.823,-11.965C62.823,-11.965 63.916,-11.353 63.461,-10.828C63.461,-10.828 62.595,-9.822 62.367,-10.915C62.367,-10.915 61.775,-12.052 60.864,-12.271C60.864,-12.271 60.09,-12.621 60.454,-12.009C60.454,-12.009 61.547,-11.178 61.684,-10.347C61.684,-10.347 62.231,-9.385 61.411,-9.997C61.411,-9.997 60.181,-11.047 60.317,-10.391C60.317,-10.391 61.411,-8.51 61.775,-7.679C61.775,-7.679 62.276,-6.936 62.322,-7.854C62.322,-7.854 62.185,-8.816 62.777,-8.16C62.777,-8.16 63.278,-7.679 63.689,-8.029C63.689,-8.029 63.916,-8.685 63.552,-8.773C63.187,-8.86 63.233,-9.472 63.233,-9.472C63.233,-9.472 62.914,-10.128 63.324,-10.216C63.324,-10.216 64.691,-11.047 64.098,-10.216C64.098,-10.216 63.142,-9.341 64.417,-8.467C64.417,-8.467 65.784,-7.985 66.239,-9.21C66.239,-9.21 66.467,-9.997 66.103,-10.347C66.103,-10.347 65.465,-11.09 66.285,-11.222L67.06,-11.528C67.06,-11.528 67.879,-11.878 67.697,-11.09L66.786,-9.254C66.786,-9.254 66.285,-8.248 65.784,-8.16L63.096,-6.674C63.096,-6.674 62.003,-6.411 62.732,-6.193C62.732,-6.193 63.552,-5.886 64.144,-6.542L65.374,-7.286C65.374,-7.286 66.194,-7.811 65.83,-6.892C65.83,-6.892 65.784,-6.061 64.6,-5.187L63.051,-4.181L62.55,-3.918L62.048,-3.612ZM52.322,-2.968L53.156,-1.366C53.156,-1.366 53.639,-0.776 54.341,-1.24L56.009,-1.956C56.009,-1.956 56.667,-2.336 55.877,-2.293C55.877,-2.293 53.2,-2.251 52.059,-4.821C52.059,-4.821 51.664,-5.411 51.576,-4.779C51.576,-4.779 51.445,-4.611 51.883,-3.937L52.103,-3.473L52.322,-2.968ZM48.328,-4.948C48.328,-4.948 47.406,-4.316 46.221,-4.105C46.221,-4.105 45.431,-4.105 46.397,-3.599L47.231,-3.01C47.231,-3.01 48.021,-2.757 48.416,-3.262L49.074,-3.81C49.074,-3.81 49.908,-4.569 49.425,-3.515C49.425,-3.515 48.899,-1.83 46.353,-0.819C46.353,-0.819 45.256,-0.481 47.055,-0.65C47.055,-0.65 50.128,-0.102 51.313,-5.58C51.313,-5.58 53.463,-7.139 53.946,-7.181C53.946,-7.181 54.824,-7.687 53.727,-7.94C53.727,-7.94 53.025,-8.361 52.673,-7.56L52.059,-7.181C52.059,-7.181 51.401,-6.802 51.664,-7.687L51.927,-9.583C51.927,-9.583 52.191,-10.257 51.664,-10.426C51.137,-10.594 50.611,-11.268 50.611,-11.268C50.611,-11.268 50.084,-11.9 50.084,-10.889C50.084,-10.889 50.567,-8.024 50.084,-6.044L49.162,-5.454L48.767,-5.159L48.328,-4.948ZM38.694,-9.324C38.694,-9.324 38.946,-10.154 39.342,-9.877C39.342,-9.877 39.702,-9.842 39.342,-9.289L38.946,-8.944C38.946,-8.944 38.405,-8.321 38.622,-9.117C38.405,-8.321 38.694,-9.324 38.694,-9.324M39.919,-4.552C39.919,-4.552 39.486,-3.514 39.09,-3.134L40.063,-2.304C40.063,-2.304 40.423,-1.82 42.188,-1.751C42.188,-1.751 43.269,-1.82 42.152,-1.301L40.531,-0.471C40.531,-0.471 39.522,-0.022 39.27,-0.644L38.694,-1.751C38.694,-1.751 38.514,-2.65 38.297,-2.027C38.297,-2.027 37.469,-1.059 36.965,-1.059C36.965,-1.059 36.208,-0.782 35.452,-1.094C35.452,-1.094 34.371,-1.163 35.956,-1.474C35.956,-1.474 37.073,-1.785 37.829,-2.961L36.677,-4.31C36.677,-4.31 36.244,-4.794 36.857,-4.794C36.857,-4.794 36.929,-4.932 37.613,-4.413C37.613,-4.413 38.045,-4.171 38.189,-3.895C38.239,-3.881 38.328,-3.737 38.55,-4.137C38.583,-4.196 38.725,-4.633 39.054,-5.209C39.054,-5.209 39.45,-5.693 38.874,-5.52C38.874,-5.52 38.369,-5.209 38.153,-4.967C38.153,-4.967 37.865,-4.655 37.325,-5.001C37.325,-5.001 36.424,-5.347 36.965,-5.797L37.181,-6.419C37.181,-6.419 37.505,-7.284 36.821,-6.592C36.821,-6.592 36.46,-6.073 36.28,-6.454L35.524,-7.111C35.524,-7.111 34.984,-7.526 35.848,-7.457L37.829,-8.287C37.829,-8.287 38.009,-9.704 38.189,-9.946C38.189,-9.946 38.261,-11.572 39.126,-11.26C39.126,-11.26 39.738,-11.26 40.315,-10.085C40.315,-10.085 40.819,-9.462 40.135,-9.013C40.135,-9.013 38.825,-8.201 38.706,-8.073C38.706,-8.073 38.108,-7.707 38.009,-7.007C38.009,-7.007 37.361,-5.624 38.045,-6.039L39.594,-7.18C39.594,-7.18 39.846,-7.664 40.639,-7.042C40.639,-7.042 41.503,-6.592 40.855,-6.073L40.207,-5.278L40.027,-4.863L39.919,-4.552ZM31.994,-6.661C31.994,-6.661 31.49,-6.281 31.021,-6.281C31.021,-6.281 30.697,-6.419 30.841,-5.969C30.841,-5.969 30.877,-5.451 31.742,-5.243C31.742,-5.243 32.426,-5.174 32.426,-5.416C32.426,-5.416 32.426,-5.762 32.822,-5.9C32.822,-5.9 33.399,-6.212 33.507,-6.454C33.507,-6.454 33.949,-6.943 33.824,-6.171L33.734,-4.713C33.697,-4.102 32.611,-3.237 32.282,-2.996C32.282,-2.996 31.778,-2.477 31.417,-2.477C31.417,-2.477 31.021,-2.65 31.381,-1.958C31.381,-1.958 32.102,-1.267 32.318,-1.509L32.966,-2.166L33.435,-2.788C33.435,-2.788 33.831,-3.48 33.651,-2.408C33.651,-2.408 33.615,-1.197 33.399,-0.886C33.399,-0.886 33.182,-0.817 33.507,-0.298C33.507,-0.298 33.867,0.566 34.155,0.221L34.551,-0.437C34.551,-0.437 34.768,-1.024 34.659,-1.232C34.551,-1.439 34.695,-4.448 34.695,-4.448L35.74,-5.935C35.74,-5.935 36.352,-6.557 35.74,-6.592C35.74,-6.592 35.308,-6.246 35.092,-5.797C35.092,-5.797 34.659,-5.416 34.803,-6.177L34.876,-7.214C34.876,-7.214 34.659,-7.768 35.308,-7.906L36.028,-8.356C36.028,-8.356 36.568,-8.702 36.1,-8.84C36.1,-8.84 35.56,-9.6 35.524,-8.805L35.2,-8.529C35.2,-8.529 34.768,-8.217 35.02,-8.84L35.128,-9.981C35.128,-9.981 35.2,-10.776 35.452,-10.949C35.452,-10.949 35.02,-11.987 34.371,-11.537C34.371,-11.537 33.291,-11.053 34.047,-10.327L33.903,-7.975C33.903,-7.975 33.867,-7.595 33.507,-7.526L32.534,-6.938L32.282,-6.765L31.994,-6.661ZM18.961,-3.289L19.38,-3.845C19.38,-3.845 19.739,-4.362 19.739,-3.864C19.739,-3.864 19.739,-3.194 19.2,-3.059C19.2,-3.059 18.762,-2.83 18.801,-3.04L18.861,-3.194L18.961,-3.289ZM20.777,-6.698C20.777,-6.698 20.896,-7.139 21.195,-6.813C21.195,-6.813 21.215,-6.507 20.956,-6.469C20.956,-6.469 20.737,-6.277 20.796,-6.564C20.737,-6.277 20.777,-6.698 20.777,-6.698M18.111,-5.991C18.111,-5.991 17.167,-5.497 16.91,-5.702C16.91,-5.702 16.438,-5.785 16.824,-5.208C16.824,-5.208 17.296,-4.097 18.283,-4.838L19.484,-5.785C19.484,-5.785 20.042,-6.361 19.827,-5.455C19.827,-5.455 19.87,-4.838 19.484,-4.755L17.554,-2.573C17.554,-2.573 16.739,-1.832 17.768,-1.626C17.768,-1.626 18.411,-1.42 18.926,-2.038C18.926,-2.038 19.741,-3.026 19.57,-2.285L19.484,-0.843C19.484,-0.843 19.355,-0.308 19.827,-0.185C19.827,-0.185 20.213,0.145 20.513,-0.349C20.513,-0.349 20.856,-0.638 20.728,-1.461L20.728,-3.438C20.728,-3.438 21.671,-4.138 21.8,-4.426C21.8,-4.426 22.058,-5.167 21.285,-4.426C21.285,-4.426 20.599,-3.644 20.685,-4.344L20.685,-5.208C20.685,-5.208 22.486,-6.65 22.401,-6.855C22.315,-7.061 22.658,-7.185 21.972,-7.803C21.972,-7.803 21.5,-8.255 21.328,-7.761C21.328,-7.761 20.642,-7.061 20.771,-7.72C20.771,-7.72 21.242,-8.214 20.728,-8.544C20.728,-8.544 19.998,-9.12 19.741,-8.338C19.741,-8.338 19.398,-8.379 19.913,-6.897L19.055,-6.526L18.583,-6.197L18.111,-5.991ZM25.832,-8.956L25.703,-5.62L26.347,-6.073L26.475,-6.855C26.475,-6.855 26.475,-7.432 27.076,-6.773C27.076,-6.773 27.719,-6.238 27.634,-5.62C27.634,-5.62 26.347,-5.291 25.66,-4.138L25.66,-0.226C25.66,-0.226 25.66,0.515 25.489,0.762C25.489,0.762 25.06,1.751 24.76,1.71C24.76,1.71 24.202,1.38 24.502,0.351L24.459,-2.532C24.459,-2.532 24.717,-3.479 23.988,-2.614C23.988,-2.614 23.344,-1.626 22.529,-2.408C22.529,-2.408 21.757,-2.861 22.572,-3.355C22.572,-3.355 22.701,-3.273 22.915,-4.055L23.001,-4.838C23.001,-4.838 23.215,-5.579 22.701,-5.62C22.701,-5.62 22.1,-6.032 22.443,-6.32C22.443,-6.32 23.559,-7.473 22.272,-8.544C22.272,-8.544 21.328,-8.997 22.1,-9.161C22.1,-9.161 22.915,-9.203 22.915,-8.956C22.915,-8.956 24.202,-9.244 24.116,-8.132C24.116,-8.132 24.074,-7.679 23.773,-7.638C23.773,-7.638 22.572,-6.485 23.516,-6.567C23.516,-6.567 24.803,-6.279 23.773,-5.25C23.773,-5.25 23.43,-5.497 23.344,-4.508C23.344,-4.508 22.872,-3.314 23.602,-3.767C23.602,-3.767 23.945,-3.891 24.417,-4.467C24.417,-4.467 24.674,-4.879 24.674,-5.497C24.674,-5.497 24.717,-9.573 24.545,-10.438C24.545,-10.438 24.202,-11.097 24.845,-11.426C24.845,-11.426 25.231,-11.879 25.918,-11.138C25.918,-11.138 26.39,-11.056 25.918,-10.273L25.875,-9.573L25.832,-8.956ZM20.771,-10.232L21.886,-11.014C21.886,-11.014 22.1,-11.673 22.701,-10.891C22.701,-10.891 23.301,-10.067 22.401,-9.82C22.401,-9.82 21.886,-9.573 21.457,-9.614C21.457,-9.614 19.655,-8.791 19.183,-8.667C19.183,-8.667 18.24,-8.42 18.454,-8.873L20.256,-9.903L20.771,-10.232ZM-5.116,-1.375C-4.323,-1.744 -3.821,-1.893 -3.612,-1.819C-3.513,-1.843 -3.466,-0.618 -3.491,1.291C-3.451,2.382 -2.841,2.325 -2.539,1.877C-2.105,1.391 -1.931,0.355 -1.992,-1.042L-1.992,-2.208L-1.645,-2.652L-0.198,-3.264C0.343,-3.504 0.362,-3.745 -0.141,-3.986L-1.009,-4.652C-1.225,-4.878 -1.129,-5.062 -0.719,-5.208L1.769,-6.485C2.151,-6.623 2.247,-6.873 1.711,-7.373C1.526,-7.656 1.198,-7.75 0.554,-7.429L-0.141,-7.04C-0.743,-6.62 -0.782,-6.824 -0.256,-7.651L0.554,-8.207C1.244,-8.552 1.043,-8.815 0.438,-9.04L-0.198,-9.484C-0.452,-9.712 -0.664,-9.638 -0.835,-9.262C-0.863,-8.602 -1.093,-8.273 -1.414,-8.096C-1.707,-7.856 -1.939,-7.837 -2.108,-8.04C-2.546,-8.318 -2.546,-8.596 -2.108,-8.873C-1.814,-9.371 -1.331,-9.667 -0.661,-9.762C0.001,-10.077 0.555,-10.421 0.716,-10.777C1.039,-11.084 0.876,-11.476 0.322,-11.984C-0.257,-12.794 -0.802,-12.95 -1.298,-12.15L-2.166,-10.262L-2.802,-10.151L-2.629,-11.539C-2.5,-11.891 -2.751,-12.228 -3.323,-12.584C-3.968,-12.972 -4.342,-13.073 -4.538,-12.706C-4.635,-12.594 -4.462,-12.26 -4.017,-11.706C-3.703,-11.319 -3.438,-10.764 -3.207,-10.095C-3.926,-9.948 -4.751,-9.93 -5.637,-9.984C-6.673,-10.003 -7.02,-9.781 -6.678,-9.318C-6.409,-9.077 -6.138,-8.836 -5.869,-8.596L-3.67,-9.151C-2.558,-9.439 -2.452,-9.285 -2.802,-8.929C-2.868,-8.731 -3.08,-8.694 -3.438,-8.818C-3.992,-8.653 -3.948,-8.335 -3.792,-7.97C-3.656,-7.38 -3.683,-7.229 -4.075,-7.485C-4.229,-7.587 -4.383,-7.569 -4.538,-7.429C-4.705,-7.181 -4.956,-7.255 -5.29,-7.651C-5.988,-8.327 -6.491,-8.613 -6.563,-8.04L-6.4,-7.485C-6.104,-6.89 -6.19,-6.557 -6.563,-6.485C-6.735,-6.337 -6.677,-6.189 -6.389,-6.041L-5.869,-5.541C-5.62,-5.049 -5.236,-5.047 -4.653,-5.763C-4.011,-6.538 -3.64,-6.649 -3.665,-6.096C-3.607,-5.572 -3.821,-5.35 -4.306,-5.43L-9.776,-3.822C-9.88,-3.783 -9.907,-3.739 -9.855,-3.692L-8.674,-3.016C-8.593,-2.948 -8.2,-2.952 -8.074,-2.987L-6.563,-3.486L-4.422,-4.541C-3.754,-4.829 -3.503,-4.755 -3.67,-4.319C-3.721,-4.072 -3.856,-3.905 -4.075,-3.819C-5.123,-3.269 -6.118,-2.539 -7.083,-1.708C-7.667,-1.208 -7.686,-0.949 -7.141,-0.931C-6.802,-0.765 -6.359,-0.82 -5.81,-1.097L-5.116,-1.375ZM-2.029,-7.409L-2.084,-6.564C-2.059,-6.141 -1.857,-6.144 -1.574,-6.342C-1.444,-6.498 -1.278,-6.76 -1.254,-7.019C-1.195,-7.328 -1.353,-7.459 -1.551,-7.52C-1.749,-7.628 -1.895,-7.632 -2.029,-7.409M-1.741,-5.62C-1.951,-5.543 -2.009,-5.413 -1.918,-5.232C-1.762,-5.072 -1.558,-5.129 -1.186,-5.403L-0.406,-5.845C-0.124,-6.054 -0.229,-6.108 -0.719,-6.008L-1.468,-5.736L-1.741,-5.62ZM-1.998,-4.414L-1.998,-3.71C-1.917,-3.431 -1.75,-3.438 -1.544,-3.576C-1.457,-3.652 -1.438,-3.794 -1.568,-4.079C-1.742,-4.339 -1.886,-4.451 -1.998,-4.414M-3.586,-3.148C-3.593,-2.863 -3.832,-2.648 -4.302,-2.502L-4.878,-2.241C-5.573,-2.081 -5.718,-2.158 -5.312,-2.47L-4.15,-3.221C-3.75,-3.463 -3.609,-3.379 -3.586,-3.148M10.008,-7.393L10.022,-6.475C10.022,-6.475 9.798,-5.921 10.667,-6.421C10.667,-6.421 11.213,-6.853 11.115,-7.299C11.115,-7.299 11.199,-7.974 11.465,-8.069C11.465,-8.069 11.633,-8.744 10.891,-8.298L10.26,-7.785L10.12,-7.636C10.12,-7.636 9.966,-7.569 10.008,-7.393M6.274,-7.717C6.274,-7.717 6.657,-8.718 6.877,-7.401L7.206,-6.453C7.206,-6.453 7.481,-5.821 8.029,-6.717L8.578,-7.243C8.578,-7.243 8.907,-7.191 8.797,-7.77L8.742,-9.192C8.742,-9.192 8.688,-10.193 8.413,-10.14C8.413,-10.14 7.865,-11.141 8.523,-11.352C8.523,-11.352 8.742,-12.036 9.62,-11.51C9.62,-11.51 10.663,-11.088 10.279,-10.351L10.114,-8.981C10.114,-8.981 9.949,-8.35 10.937,-9.139L12.254,-10.035C12.254,-10.035 13.625,-10.561 13.954,-9.877C13.954,-9.877 14.284,-9.35 13.57,-8.929C13.57,-8.929 11.705,-8.402 11.98,-6.927C11.98,-6.927 12.967,-6.664 12.089,-5.926C12.089,-5.926 11.211,-5.821 10.608,-5.295L9.949,-5.136L10.004,0.341C10.004,0.341 10.004,1.921 9.072,1.342C9.072,1.342 8.029,0.078 8.688,-1.608L8.797,-5.769C8.797,-5.769 9.017,-6.98 8.084,-5.558L7.261,-4.399C7.261,-4.399 6.867,-3.9 6.274,-4.293C6.274,-4.293 4.988,-4.922 5.615,-5.993C5.835,-6.369 6.036,-7.147 6.274,-7.717" style="fill:rgb(34,24,21);"/>
        </g>
        <g transform="matrix(1,0,0,1,254.867,144.481)">
            <path d="M0,2.366L0,1.365L-0.793,0.002L-0.462,0.002L-0.056,0.715C0.018,0.848 0.088,0.981 0.153,1.115C0.215,0.991 0.289,0.852 0.378,0.697L0.776,0.002L1.093,0.002L0.272,1.365L0.272,2.366L0,2.366ZM-1.773,1.439L-1.773,1.162L-0.901,1.16L-0.901,2.037C-1.035,2.16 -1.173,2.251 -1.315,2.314C-1.458,2.375 -1.604,2.406 -1.753,2.406C-1.956,2.406 -2.139,2.357 -2.304,2.257C-2.47,2.158 -2.594,2.014 -2.678,1.826C-2.763,1.638 -2.805,1.427 -2.805,1.195C-2.805,0.965 -2.763,0.751 -2.679,0.551C-2.595,0.351 -2.475,0.203 -2.318,0.106C-2.161,0.01 -1.979,-0.038 -1.774,-0.038C-1.626,-0.038 -1.491,-0.011 -1.371,0.045C-1.251,0.1 -1.156,0.177 -1.088,0.276C-1.02,0.375 -0.968,0.504 -0.932,0.663L-1.178,0.741C-1.209,0.62 -1.248,0.525 -1.293,0.457C-1.339,0.388 -1.405,0.333 -1.49,0.291C-1.575,0.25 -1.669,0.229 -1.773,0.229C-1.898,0.229 -2.005,0.251 -2.096,0.295C-2.187,0.338 -2.26,0.395 -2.316,0.467C-2.371,0.537 -2.414,0.615 -2.445,0.7C-2.498,0.846 -2.524,1.005 -2.524,1.176C-2.524,1.387 -2.492,1.563 -2.429,1.705C-2.366,1.847 -2.274,1.952 -2.153,2.021C-2.032,2.09 -1.905,2.124 -1.769,2.124C-1.651,2.124 -1.536,2.098 -1.424,2.046C-1.311,1.994 -1.226,1.938 -1.168,1.879L-1.168,1.439L-1.773,1.439ZM-4.694,1.219C-4.694,1.505 -4.628,1.728 -4.494,1.893C-4.361,2.057 -4.194,2.139 -3.992,2.139C-3.787,2.139 -3.619,2.056 -3.486,1.89C-3.354,1.725 -3.288,1.49 -3.288,1.185C-3.288,0.993 -3.316,0.825 -3.373,0.682C-3.429,0.538 -3.512,0.427 -3.621,0.347C-3.73,0.269 -3.852,0.229 -3.988,0.229C-4.181,0.229 -4.347,0.305 -4.486,0.458C-4.624,0.61 -4.694,0.864 -4.694,1.219M-4.975,1.215C-4.975,0.822 -4.883,0.515 -4.7,0.293C-4.516,0.071 -4.279,-0.04 -3.989,-0.04C-3.8,-0.04 -3.628,0.012 -3.476,0.116C-3.323,0.221 -3.207,0.366 -3.127,0.553C-3.047,0.739 -3.007,0.951 -3.007,1.187C-3.007,1.427 -3.049,1.642 -3.133,1.831C-3.217,2.02 -3.337,2.163 -3.491,2.26C-3.646,2.358 -3.812,2.406 -3.991,2.406C-4.185,2.406 -4.358,2.353 -4.51,2.245C-4.663,2.138 -4.778,1.991 -4.857,1.804C-4.936,1.619 -4.975,1.422 -4.975,1.215M-6.422,2.366L-6.422,0.002L-6.15,0.002L-6.15,2.087L-5.136,2.087L-5.136,2.366L-6.422,2.366ZM-8.369,1.219C-8.369,1.505 -8.302,1.728 -8.169,1.893C-8.035,2.057 -7.868,2.139 -7.667,2.139C-7.462,2.139 -7.294,2.056 -7.161,1.89C-7.029,1.725 -6.962,1.49 -6.962,1.185C-6.962,0.993 -6.991,0.825 -7.047,0.682C-7.104,0.538 -7.187,0.427 -7.296,0.347C-7.405,0.269 -7.527,0.229 -7.663,0.229C-7.856,0.229 -8.021,0.305 -8.16,0.458C-8.299,0.61 -8.369,0.864 -8.369,1.219M-8.65,1.215C-8.65,0.822 -8.558,0.515 -8.375,0.293C-8.191,0.071 -7.954,-0.04 -7.664,-0.04C-7.475,-0.04 -7.303,0.012 -7.151,0.116C-6.998,0.221 -6.882,0.366 -6.802,0.553C-6.722,0.739 -6.682,0.951 -6.682,1.187C-6.682,1.427 -6.724,1.642 -6.808,1.831C-6.892,2.02 -7.012,2.163 -7.166,2.26C-7.32,2.358 -7.487,2.406 -7.665,2.406C-7.86,2.406 -8.033,2.353 -8.185,2.245C-8.338,2.138 -8.453,1.991 -8.532,1.804C-8.611,1.619 -8.65,1.422 -8.65,1.215M-10.566,2.366L-10.566,0.002L-10.286,0.002L-9.206,1.858L-9.206,0.002L-8.944,0.002L-8.944,2.366L-9.224,2.366L-10.305,0.508L-10.305,2.366L-10.566,2.366ZM-12.55,2.366L-12.55,0.002L-12.278,0.002L-12.278,0.973L-11.208,0.973L-11.208,0.002L-10.936,0.002L-10.936,2.366L-11.208,2.366L-11.208,1.252L-12.278,1.252L-12.278,2.366L-12.55,2.366ZM-13.087,1.537L-12.814,1.616C-12.871,1.873 -12.974,2.069 -13.122,2.204C-13.271,2.339 -13.452,2.406 -13.666,2.406C-13.888,2.406 -14.068,2.354 -14.207,2.251C-14.346,2.147 -14.452,1.997 -14.524,1.8C-14.597,1.603 -14.633,1.392 -14.633,1.166C-14.633,0.92 -14.592,0.705 -14.51,0.522C-14.428,0.339 -14.312,0.199 -14.161,0.104C-14.01,0.009 -13.844,-0.038 -13.662,-0.038C-13.456,-0.038 -13.283,0.022 -13.143,0.142C-13.002,0.263 -12.904,0.432 -12.849,0.65L-13.117,0.723C-13.165,0.551 -13.234,0.426 -13.325,0.347C-13.416,0.268 -13.53,0.229 -13.668,0.229C-13.826,0.229 -13.958,0.273 -14.064,0.36C-14.17,0.447 -14.245,0.564 -14.287,0.711C-14.331,0.857 -14.352,1.009 -14.352,1.164C-14.352,1.366 -14.327,1.541 -14.276,1.691C-14.225,1.841 -14.146,1.953 -14.038,2.028C-13.93,2.102 -13.814,2.139 -13.688,2.139C-13.536,2.139 -13.407,2.088 -13.301,1.987C-13.195,1.886 -13.124,1.736 -13.087,1.537M-16.386,2.366L-16.386,0.002L-14.898,0.002L-14.898,0.281L-16.114,0.281L-16.114,1.005L-14.976,1.005L-14.976,1.282L-16.114,1.282L-16.114,2.087L-14.851,2.087L-14.851,2.366L-16.386,2.366ZM-17.544,2.366L-17.544,0.281L-18.222,0.281L-18.222,0.002L-16.591,0.002L-16.591,0.281L-17.272,0.281L-17.272,2.366L-17.544,2.366ZM-20.618,2.087L-20.179,2.087C-20.043,2.087 -19.937,2.073 -19.86,2.043C-19.782,2.014 -19.721,1.973 -19.675,1.921C-19.61,1.847 -19.56,1.747 -19.524,1.622C-19.488,1.496 -19.47,1.345 -19.47,1.166C-19.47,0.919 -19.505,0.729 -19.576,0.596C-19.647,0.463 -19.733,0.374 -19.833,0.329C-19.906,0.297 -20.024,0.281 -20.186,0.281L-20.618,0.281L-20.618,2.087ZM-20.89,2.366L-20.89,0.002L-20.182,0.002C-20.022,0.002 -19.9,0.014 -19.815,0.036C-19.698,0.067 -19.597,0.124 -19.513,0.205C-19.405,0.311 -19.324,0.445 -19.27,0.609C-19.216,0.773 -19.189,0.96 -19.189,1.171C-19.189,1.35 -19.207,1.51 -19.244,1.648C-19.281,1.787 -19.327,1.902 -19.385,1.993C-19.442,2.084 -19.504,2.155 -19.572,2.207C-19.64,2.259 -19.721,2.299 -19.817,2.326C-19.914,2.353 -20.024,2.366 -20.148,2.366L-20.89,2.366ZM-22.889,2.366L-22.889,0.002L-22.61,0.002L-21.529,1.858L-21.529,0.002L-21.268,0.002L-21.268,2.366L-21.548,2.366L-22.628,0.508L-22.628,2.366L-22.889,2.366ZM-24.356,1.395L-23.658,1.395L-23.873,0.741C-23.938,0.542 -23.987,0.378 -24.019,0.25C-24.045,0.402 -24.082,0.552 -24.13,0.702L-24.356,1.395ZM-24.95,2.366L-24.159,0.002L-23.866,0.002L-23.024,2.366L-23.335,2.366L-23.574,1.65L-24.435,1.65L-24.661,2.366L-24.95,2.366ZM-27.275,2.366L-27.275,0.002L-25.788,0.002L-25.788,0.281L-27.003,0.281L-27.003,1.005L-25.865,1.005L-25.865,1.282L-27.003,1.282L-27.003,2.087L-25.74,2.087L-25.74,2.366L-27.275,2.366ZM-27.809,1.537L-27.536,1.616C-27.593,1.873 -27.696,2.069 -27.844,2.204C-27.993,2.339 -28.174,2.406 -28.389,2.406C-28.61,2.406 -28.791,2.354 -28.93,2.251C-29.068,2.147 -29.174,1.997 -29.247,1.8C-29.319,1.603 -29.355,1.392 -29.355,1.166C-29.355,0.92 -29.314,0.705 -29.233,0.522C-29.151,0.339 -29.034,0.199 -28.883,0.104C-28.732,0.009 -28.566,-0.038 -28.384,-0.038C-28.178,-0.038 -28.005,0.022 -27.865,0.142C-27.725,0.263 -27.627,0.432 -27.572,0.65L-27.839,0.723C-27.888,0.551 -27.956,0.426 -28.047,0.347C-28.138,0.268 -28.252,0.229 -28.39,0.229C-28.548,0.229 -28.68,0.273 -28.786,0.36C-28.893,0.447 -28.968,0.564 -29.01,0.711C-29.053,0.857 -29.074,1.009 -29.074,1.164C-29.074,1.366 -29.049,1.541 -28.998,1.691C-28.947,1.841 -28.868,1.953 -28.76,2.028C-28.653,2.102 -28.536,2.139 -28.411,2.139C-28.258,2.139 -28.129,2.088 -28.024,1.987C-27.918,1.886 -27.846,1.736 -27.809,1.537M-31.276,2.366L-31.276,0.002L-30.996,0.002L-29.916,1.858L-29.916,0.002L-29.654,0.002L-29.654,2.366L-29.934,2.366L-31.014,0.508L-31.014,2.366L-31.276,2.366ZM-33.104,2.366L-33.104,0.002L-31.617,0.002L-31.617,0.281L-32.832,0.281L-32.832,1.005L-31.694,1.005L-31.694,1.282L-32.832,1.282L-32.832,2.087L-31.569,2.087L-31.569,2.366L-33.104,2.366ZM-33.782,0.002L-33.51,0.002L-33.51,2.366L-33.782,2.366L-33.782,0.002ZM-34.357,1.537L-34.084,1.616C-34.141,1.873 -34.244,2.069 -34.392,2.204C-34.541,2.339 -34.722,2.406 -34.936,2.406C-35.158,2.406 -35.338,2.354 -35.477,2.251C-35.616,2.147 -35.722,1.997 -35.794,1.8C-35.867,1.603 -35.903,1.392 -35.903,1.166C-35.903,0.92 -35.863,0.705 -35.781,0.522C-35.699,0.339 -35.582,0.199 -35.431,0.104C-35.28,0.009 -35.114,-0.038 -34.932,-0.038C-34.726,-0.038 -34.553,0.022 -34.413,0.142C-34.272,0.263 -34.175,0.432 -34.119,0.65L-34.387,0.723C-34.435,0.551 -34.504,0.426 -34.595,0.347C-34.686,0.268 -34.8,0.229 -34.938,0.229C-35.096,0.229 -35.228,0.273 -35.334,0.36C-35.44,0.447 -35.515,0.564 -35.558,0.711C-35.601,0.857 -35.622,1.009 -35.622,1.164C-35.622,1.366 -35.597,1.541 -35.546,1.691C-35.495,1.841 -35.416,1.953 -35.308,2.028C-35.2,2.102 -35.084,2.139 -34.959,2.139C-34.806,2.139 -34.677,2.088 -34.571,1.987C-34.466,1.886 -34.394,1.736 -34.357,1.537M-37.754,1.606L-37.498,1.581C-37.486,1.699 -37.458,1.796 -37.413,1.872C-37.368,1.948 -37.299,2.009 -37.206,2.056C-37.113,2.102 -37.007,2.125 -36.89,2.125C-36.786,2.125 -36.694,2.108 -36.615,2.073C-36.536,2.037 -36.476,1.988 -36.437,1.927C-36.399,1.865 -36.379,1.797 -36.379,1.724C-36.379,1.65 -36.397,1.585 -36.435,1.53C-36.473,1.474 -36.535,1.428 -36.62,1.391C-36.676,1.366 -36.798,1.327 -36.987,1.275C-37.176,1.223 -37.308,1.174 -37.384,1.128C-37.482,1.069 -37.556,0.995 -37.604,0.907C-37.652,0.82 -37.676,0.722 -37.676,0.613C-37.676,0.494 -37.647,0.382 -37.588,0.279C-37.529,0.175 -37.443,0.096 -37.329,0.042C-37.216,-0.011 -37.09,-0.038 -36.952,-0.038C-36.799,-0.038 -36.665,-0.01 -36.548,0.046C-36.432,0.103 -36.342,0.186 -36.279,0.295C-36.217,0.405 -36.183,0.529 -36.178,0.668L-36.439,0.69C-36.454,0.541 -36.501,0.428 -36.582,0.352C-36.663,0.275 -36.782,0.237 -36.941,0.237C-37.106,0.237 -37.225,0.272 -37.301,0.342C-37.376,0.411 -37.414,0.495 -37.414,0.592C-37.414,0.677 -37.387,0.747 -37.334,0.802C-37.281,0.857 -37.145,0.913 -36.923,0.97C-36.702,1.028 -36.55,1.078 -36.468,1.121C-36.348,1.185 -36.259,1.265 -36.202,1.362C-36.145,1.46 -36.117,1.572 -36.117,1.698C-36.117,1.824 -36.148,1.943 -36.211,2.054C-36.274,2.165 -36.364,2.251 -36.481,2.314C-36.598,2.375 -36.73,2.406 -36.877,2.406C-37.064,2.406 -37.22,2.375 -37.345,2.313C-37.471,2.25 -37.57,2.157 -37.642,2.031C-37.713,1.907 -37.751,1.764 -37.754,1.606M-40.203,2.366L-40.203,0.002L-38.814,0.002L-38.814,0.281L-39.93,0.281L-39.93,1.013L-38.965,1.013L-38.965,1.292L-39.93,1.292L-39.93,2.366L-40.203,2.366ZM-42.175,1.219C-42.175,1.505 -42.108,1.728 -41.975,1.893C-41.841,2.057 -41.674,2.139 -41.473,2.139C-41.268,2.139 -41.099,2.056 -40.967,1.89C-40.835,1.725 -40.768,1.49 -40.768,1.185C-40.768,0.993 -40.797,0.825 -40.853,0.682C-40.91,0.538 -40.993,0.427 -41.102,0.347C-41.211,0.269 -41.333,0.229 -41.469,0.229C-41.661,0.229 -41.827,0.305 -41.966,0.458C-42.105,0.61 -42.175,0.864 -42.175,1.219M-42.455,1.215C-42.455,0.822 -42.364,0.515 -42.18,0.293C-41.997,0.071 -41.76,-0.04 -41.47,-0.04C-41.28,-0.04 -41.109,0.012 -40.956,0.116C-40.804,0.221 -40.688,0.366 -40.607,0.553C-40.527,0.739 -40.488,0.951 -40.488,1.187C-40.488,1.427 -40.529,1.642 -40.614,1.831C-40.698,2.02 -40.817,2.163 -40.972,2.26C-41.126,2.358 -41.293,2.406 -41.471,2.406C-41.665,2.406 -41.838,2.353 -41.99,2.245C-42.144,2.138 -42.259,1.991 -42.337,1.804C-42.416,1.619 -42.455,1.422 -42.455,1.215M-44.457,2.366L-44.457,1.365L-45.25,0.002L-44.919,0.002L-44.513,0.715C-44.438,0.848 -44.369,0.981 -44.304,1.115C-44.242,0.991 -44.167,0.852 -44.079,0.697L-43.681,0.002L-43.364,0.002L-44.185,1.365L-44.185,2.366L-44.457,2.366ZM-46.189,2.366L-46.189,0.281L-46.867,0.281L-46.867,0.002L-45.236,0.002L-45.236,0.281L-45.917,0.281L-45.917,2.366L-46.189,2.366ZM-47.385,0.002L-47.113,0.002L-47.113,2.366L-47.385,2.366L-47.385,0.002ZM-49.361,1.606L-49.104,1.581C-49.092,1.699 -49.064,1.796 -49.019,1.872C-48.975,1.948 -48.906,2.009 -48.812,2.056C-48.719,2.102 -48.613,2.125 -48.497,2.125C-48.393,2.125 -48.301,2.108 -48.222,2.073C-48.142,2.037 -48.083,1.988 -48.044,1.927C-48.005,1.865 -47.985,1.797 -47.985,1.724C-47.985,1.65 -48.004,1.585 -48.042,1.53C-48.079,1.474 -48.141,1.428 -48.227,1.391C-48.283,1.366 -48.404,1.327 -48.593,1.275C-48.782,1.223 -48.915,1.174 -48.991,1.128C-49.089,1.069 -49.162,0.995 -49.211,0.907C-49.258,0.82 -49.282,0.722 -49.282,0.613C-49.282,0.494 -49.253,0.382 -49.194,0.279C-49.135,0.175 -49.049,0.096 -48.936,0.042C-48.823,-0.011 -48.697,-0.038 -48.558,-0.038C-48.406,-0.038 -48.271,-0.01 -48.155,0.046C-48.038,0.103 -47.949,0.186 -47.886,0.295C-47.824,0.405 -47.789,0.529 -47.785,0.668L-48.046,0.69C-48.06,0.541 -48.108,0.428 -48.189,0.352C-48.269,0.275 -48.389,0.237 -48.547,0.237C-48.712,0.237 -48.832,0.272 -48.907,0.342C-48.982,0.411 -49.02,0.495 -49.02,0.592C-49.02,0.677 -48.993,0.747 -48.94,0.802C-48.887,0.857 -48.751,0.913 -48.53,0.97C-48.308,1.028 -48.157,1.078 -48.074,1.121C-47.954,1.185 -47.866,1.265 -47.809,1.362C-47.752,1.46 -47.724,1.572 -47.724,1.698C-47.724,1.824 -47.755,1.943 -47.817,2.054C-47.88,2.165 -47.97,2.251 -48.087,2.314C-48.205,2.375 -48.337,2.406 -48.484,2.406C-48.67,2.406 -48.826,2.375 -48.952,2.313C-49.078,2.25 -49.177,2.157 -49.248,2.031C-49.32,1.907 -49.357,1.764 -49.361,1.606M-50.988,1.046L-50.403,1.046C-50.278,1.046 -50.181,1.031 -50.111,1.001C-50.041,0.971 -49.987,0.924 -49.951,0.859C-49.914,0.794 -49.896,0.724 -49.896,0.647C-49.896,0.535 -49.931,0.443 -50.002,0.371C-50.073,0.299 -50.184,0.263 -50.337,0.263L-50.988,0.263L-50.988,1.046ZM-51.26,2.366L-51.26,0.002L-50.348,0.002C-50.164,0.002 -50.025,0.023 -49.93,0.066C-49.834,0.108 -49.758,0.183 -49.701,0.29C-49.644,0.398 -49.615,0.517 -49.615,0.647C-49.615,0.815 -49.662,0.956 -49.757,1.071C-49.852,1.186 -49.998,1.259 -50.195,1.291C-50.123,1.33 -50.068,1.369 -50.031,1.408C-49.951,1.492 -49.876,1.597 -49.805,1.723L-49.447,2.366L-49.789,2.366L-50.062,1.874C-50.141,1.732 -50.206,1.623 -50.258,1.548C-50.31,1.473 -50.355,1.42 -50.396,1.391C-50.437,1.36 -50.478,1.339 -50.52,1.327C-50.551,1.32 -50.602,1.316 -50.672,1.316L-50.988,1.316L-50.988,2.366L-51.26,2.366ZM-53.096,2.366L-53.096,0.002L-51.608,0.002L-51.608,0.281L-52.824,0.281L-52.824,1.005L-51.686,1.005L-51.686,1.282L-52.824,1.282L-52.824,2.087L-51.561,2.087L-51.561,2.366L-53.096,2.366ZM-54.351,2.366L-55.148,0.002L-54.853,0.002L-54.319,1.719C-54.275,1.857 -54.24,1.986 -54.211,2.106C-54.179,1.977 -54.142,1.849 -54.1,1.719L-53.544,0.002L-53.266,0.002L-54.072,2.366L-54.351,2.366ZM-55.611,0.002L-55.339,0.002L-55.339,2.366L-55.611,2.366L-55.611,0.002ZM-57.657,2.366L-57.657,0.002L-57.377,0.002L-56.296,1.858L-56.296,0.002L-56.035,0.002L-56.035,2.366L-56.315,2.366L-57.395,0.508L-57.395,2.366L-57.657,2.366ZM-58.3,0.002L-58.027,0.002L-58.027,1.368C-58.027,1.605 -58.05,1.794 -58.097,1.934C-58.144,2.074 -58.228,2.187 -58.351,2.275C-58.473,2.363 -58.633,2.406 -58.831,2.406C-59.024,2.406 -59.182,2.368 -59.304,2.292C-59.427,2.216 -59.514,2.105 -59.567,1.96C-59.619,1.816 -59.645,1.619 -59.645,1.368L-59.645,0.002L-59.373,0.002L-59.373,1.366C-59.373,1.572 -59.356,1.723 -59.323,1.82C-59.29,1.917 -59.233,1.992 -59.152,2.045C-59.071,2.098 -58.972,2.124 -58.855,2.124C-58.655,2.124 -58.512,2.072 -58.427,1.967C-58.342,1.863 -58.3,1.663 -58.3,1.366L-58.3,0.002ZM-61.721,1.439L-61.721,1.162L-60.85,1.16L-60.85,2.037C-60.983,2.16 -61.121,2.251 -61.263,2.314C-61.406,2.375 -61.552,2.406 -61.701,2.406C-61.904,2.406 -62.088,2.357 -62.253,2.257C-62.418,2.158 -62.542,2.014 -62.627,1.826C-62.711,1.638 -62.753,1.427 -62.753,1.195C-62.753,0.965 -62.711,0.751 -62.627,0.551C-62.544,0.351 -62.423,0.203 -62.266,0.106C-62.109,0.01 -61.928,-0.038 -61.723,-0.038C-61.574,-0.038 -61.44,-0.011 -61.319,0.045C-61.199,0.1 -61.105,0.177 -61.036,0.276C-60.968,0.375 -60.917,0.504 -60.881,0.663L-61.126,0.741C-61.157,0.62 -61.196,0.525 -61.241,0.457C-61.287,0.388 -61.353,0.333 -61.438,0.291C-61.523,0.25 -61.618,0.229 -61.721,0.229C-61.846,0.229 -61.954,0.251 -62.044,0.295C-62.135,0.338 -62.208,0.395 -62.264,0.467C-62.319,0.537 -62.363,0.615 -62.394,0.7C-62.446,0.846 -62.472,1.005 -62.472,1.176C-62.472,1.387 -62.441,1.563 -62.378,1.705C-62.314,1.847 -62.222,1.952 -62.102,2.021C-61.981,2.09 -61.853,2.124 -61.717,2.124C-61.599,2.124 -61.484,2.098 -61.372,2.046C-61.259,1.994 -61.174,1.938 -61.116,1.879L-61.116,1.439L-61.721,1.439ZM-64.683,2.366L-64.683,0.002L-64.403,0.002L-63.323,1.858L-63.323,0.002L-63.062,0.002L-63.062,2.366L-63.341,2.366L-64.422,0.508L-64.422,2.366L-64.683,2.366ZM-66.638,1.219C-66.638,1.505 -66.572,1.728 -66.438,1.893C-66.305,2.057 -66.138,2.139 -65.936,2.139C-65.731,2.139 -65.563,2.056 -65.431,1.89C-65.298,1.725 -65.232,1.49 -65.232,1.185C-65.232,0.993 -65.26,0.825 -65.317,0.682C-65.374,0.538 -65.456,0.427 -65.565,0.347C-65.674,0.269 -65.796,0.229 -65.932,0.229C-66.125,0.229 -66.291,0.305 -66.43,0.458C-66.569,0.61 -66.638,0.864 -66.638,1.219M-66.919,1.215C-66.919,0.822 -66.828,0.515 -66.644,0.293C-66.461,0.071 -66.224,-0.04 -65.934,-0.04C-65.744,-0.04 -65.572,0.012 -65.42,0.116C-65.267,0.221 -65.151,0.366 -65.071,0.553C-64.991,0.739 -64.951,0.951 -64.951,1.187C-64.951,1.427 -64.993,1.642 -65.077,1.831C-65.162,2.02 -65.281,2.163 -65.435,2.26C-65.59,2.358 -65.756,2.406 -65.935,2.406C-66.129,2.406 -66.302,2.353 -66.454,2.245C-66.607,2.138 -66.723,1.991 -66.801,1.804C-66.88,1.619 -66.919,1.422 -66.919,1.215M-68.824,2.366L-68.824,0.002L-68.551,0.002L-68.551,0.973L-67.482,0.973L-67.482,0.002L-67.209,0.002L-67.209,2.366L-67.482,2.366L-67.482,1.252L-68.551,1.252L-68.551,2.366L-68.824,2.366ZM-70.672,2.366L-70.672,2.076L-69.618,0.562C-69.543,0.454 -69.472,0.36 -69.405,0.281L-70.553,0.281L-70.553,0.002L-69.079,0.002L-69.079,0.281L-70.234,1.921L-70.36,2.087L-69.045,2.087L-69.045,2.366L-70.672,2.366ZM-71.978,1.395L-71.28,1.395L-71.495,0.741C-71.56,0.542 -71.609,0.378 -71.641,0.25C-71.667,0.402 -71.704,0.552 -71.752,0.702L-71.978,1.395ZM-72.571,2.366L-71.781,0.002L-71.488,0.002L-70.645,2.366L-70.956,2.366L-71.196,1.65L-72.056,1.65L-72.282,2.366L-72.571,2.366ZM-72.991,0.002L-72.719,0.002L-72.719,1.368C-72.719,1.605 -72.742,1.794 -72.789,1.934C-72.836,2.074 -72.92,2.187 -73.043,2.275C-73.165,2.363 -73.325,2.406 -73.523,2.406C-73.716,2.406 -73.874,2.368 -73.996,2.292C-74.118,2.216 -74.206,2.105 -74.258,1.96C-74.311,1.816 -74.337,1.619 -74.337,1.368L-74.337,0.002L-74.065,0.002L-74.065,1.366C-74.065,1.572 -74.048,1.723 -74.015,1.82C-73.982,1.917 -73.924,1.992 -73.844,2.045C-73.763,2.098 -73.664,2.124 -73.547,2.124C-73.347,2.124 -73.204,2.072 -73.119,1.967C-73.034,1.863 -72.991,1.663 -72.991,1.366L-72.991,0.002ZM-76.329,2.366L-76.329,0.002L-76.056,0.002L-76.056,0.973L-74.987,0.973L-74.987,0.002L-74.714,0.002L-74.714,2.366L-74.987,2.366L-74.987,1.252L-76.056,1.252L-76.056,2.366L-76.329,2.366Z" style="fill:rgb(34,24,21);"/>
        </g>
        <g transform="matrix(1,0,0,1,216.961,117.381)">
            <path d="M0,-27.234C11.757,-27.234 21.346,-21.117 21.346,-13.617C21.346,-6.117 11.757,0 0,0C-11.758,0 -21.347,-6.117 -21.347,-13.617C-21.347,-21.117 -11.758,-27.234 0,-27.234M0,-26.518C11.336,-26.518 20.581,-20.723 20.581,-13.617C20.581,-6.511 11.336,-0.715 0,-0.715C-11.336,-0.715 -20.582,-6.511 -20.582,-13.617C-20.582,-20.723 -11.336,-26.518 0,-26.518" style="fill:rgb(29,32,136);"/>
        </g>
        <g transform="matrix(1,0,0,1,216.531,117.381)">
            <path d="M0,-27.234C9.525,-27.234 17.294,-21.117 17.294,-13.617C17.294,-6.117 9.525,0 0,0C-9.526,0 -17.294,-6.117 -17.294,-13.617C-17.294,-21.117 -9.526,-27.234 0,-27.234M0,-26.518C9.184,-26.518 16.674,-20.723 16.674,-13.617C16.674,-6.511 9.184,-0.715 0,-0.715C-9.184,-0.715 -16.674,-6.511 -16.674,-13.617C-16.674,-20.723 -9.184,-26.518 0,-26.518" style="fill:rgb(29,32,136);"/>
        </g>
        <g transform="matrix(1,0,0,1,216.894,124.113)">
            <path d="M0,-41.31C15.817,-41.31 28.717,-32.031 28.717,-20.655C28.717,-9.278 15.817,0 0,0C-15.818,0 -28.718,-9.278 -28.718,-20.655C-28.718,-32.031 -15.818,-41.31 0,-41.31M0,-42.456C16.695,-42.456 30.31,-32.662 30.31,-20.655C30.31,-8.648 16.695,1.146 0,1.146C-16.695,1.146 -30.311,-8.648 -30.311,-20.655C-30.311,-32.662 -16.695,-42.456 0,-42.456" style="fill:rgb(29,32,136);"/>
        </g>
        <g transform="matrix(1,0,0,1,200.129,85.6352)">
            <path d="M0,6.031L0.134,6.232L-0.363,6.887L-0.381,6.906L-0.389,6.913L-0.402,6.921L-0.408,6.924L-0.415,6.926L-0.42,6.928L-0.437,6.928L-0.444,6.926L-0.449,6.923L-0.453,6.921L-0.456,6.919L-0.458,6.916L-0.461,6.913L-0.465,6.907L-0.467,6.903L-0.469,6.9L-0.471,6.89L-0.472,6.886L-0.472,6.873L-0.469,6.864L-0.466,6.854L-0.461,6.845L0,6.031ZM-0.701,2.868L-0.693,2.83L-0.686,2.814L-0.681,2.804L-0.676,2.796L-0.67,2.788L-0.657,2.775L-0.649,2.77L-0.639,2.766L-0.62,2.764L-0.609,2.765L-0.599,2.767L-0.583,2.773L-0.572,2.778L-0.549,2.792L-0.534,2.808L-0.522,2.824L-0.511,2.84L-0.499,2.866L-0.494,2.885L-0.491,2.905L-0.492,2.926L-0.493,2.94L-0.502,2.969L-0.547,3.099L-0.556,3.118L-0.565,3.133L-0.576,3.146L-0.586,3.153L-0.594,3.159L-0.608,3.165L-0.616,3.167L-0.622,3.169L-0.636,3.169L-0.649,3.167L-0.656,3.165L-0.661,3.163L-0.669,3.158L-0.676,3.153L-0.681,3.147L-0.685,3.143L-0.69,3.133L-0.693,3.12L-0.701,2.868ZM-0.365,4.368L-0.037,4.862L-0.011,4.851L0.011,4.838L0.031,4.825L0.057,4.8L0.077,4.772L0.092,4.742L0.099,4.72L0.103,4.696L0.106,4.664L0.105,4.628L0.099,4.59L0.059,4.475L0.036,4.425L-0.002,4.362L-0.028,4.33L-0.042,4.316L-0.064,4.299L-0.08,4.29L-0.104,4.281L-0.113,4.28L-0.12,4.279L-0.13,4.279L-0.146,4.281L-0.163,4.288L-0.365,4.368ZM0.142,5.079L0.549,4.513L0.556,4.506L0.563,4.501L0.576,4.493L0.582,4.491L0.591,4.49L0.6,4.491L0.605,4.491L0.611,4.492L0.616,4.494L0.622,4.497L0.626,4.5L0.631,4.503L0.638,4.512L0.641,4.517L0.644,4.523L0.645,4.53L0.647,4.539L0.647,4.545L0.646,4.551L0.645,4.561L0.641,4.569L0.637,4.579L0.355,5.095L0.348,5.106L0.329,5.125L0.319,5.132L0.304,5.141L0.288,5.148L0.271,5.153L0.254,5.156L0.221,5.158L0.204,5.157L0.189,5.154L0.175,5.15L0.165,5.146L0.156,5.142L0.146,5.136L0.139,5.129L0.137,5.125L0.133,5.119L0.132,5.115L0.132,5.111L0.131,5.107L0.131,5.101L0.132,5.098L0.136,5.089L0.142,5.079ZM0.358,5.454L0.37,5.49L0.379,5.509L0.402,5.55L0.535,5.739L0.564,5.727L0.607,5.699L0.619,5.687L0.629,5.675L0.636,5.664L0.642,5.651L0.646,5.639L0.648,5.629L0.649,5.62L0.647,5.601L0.642,5.581L0.638,5.567L0.63,5.553L0.619,5.535L0.604,5.517L0.588,5.501L0.556,5.474L0.521,5.453L0.485,5.435L0.45,5.422L0.421,5.416L0.408,5.414L0.399,5.415L0.39,5.415L0.382,5.418L0.378,5.42L0.372,5.422L0.369,5.424L0.36,5.433L0.359,5.437L0.359,5.44L0.358,5.443L0.358,5.454ZM6.188,1.943C6.035,1.969 5.958,1.586 5.95,1.532C5.969,1.403 6.107,1.111 6.258,1.078C6.333,1.455 6.448,1.651 6.188,1.943M7.101,4.942C7.041,4.982 6.908,4.922 6.86,4.876C6.128,4.095 6.254,2.965 5.678,2.25C5.439,2.347 5.472,3.048 5.274,3.182C4.738,3.489 4.536,2.775 4.555,2.457C4.555,2.264 4.556,2.071 4.555,1.878C4.757,1.846 4.99,2.173 5.15,2.357C5.175,2.347 5.202,2.343 5.229,2.34C5.734,1.634 5.18,1.131 4.797,0.594C4.74,0.453 4.772,0.269 4.88,0.182C4.958,0.063 5.319,0.11 5.336,0.111C5.394,0.118 5.417,0.131 5.486,0.164C5.613,0.37 5.669,0.718 5.771,1.005C5.795,1.01 5.818,1.015 5.841,1.019C6.034,0.791 6.212,0.44 6.428,0.181C6.589,0.041 6.95,-0.153 7.04,0.261C7.018,0.577 6.165,1.288 6.865,1.481C6.905,1.497 6.932,1.523 6.945,1.556C6.922,1.886 6.518,2.208 6.297,2.405C6.465,3.044 6.805,3.67 7.1,4.307C7.161,4.51 7.275,4.801 7.101,4.942M13.811,3.468C13.754,3.404 13.703,3.338 13.653,3.279C13.578,2.812 13.533,2.185 13.388,1.754C13.244,1.777 13.138,1.948 13.051,2.036C12.784,2.117 12.725,2.056 12.59,1.915C12.577,1.878 12.571,1.838 12.565,1.799C12.659,1.509 12.86,0.84 12.486,0.726C12.37,0.584 12.394,0.567 12.371,0.47C12.563,0.372 12.47,-0.041 12.41,-0.166C12.207,-0.388 11.773,-0.539 12.195,-0.668C12.491,-0.661 12.872,-0.749 12.941,-0.318C12.893,-0.163 12.617,0.122 12.726,0.299C12.95,0.323 13.17,0.395 13.064,0.74C12.84,0.931 12.884,1.078 12.932,1.378C13.099,1.291 13.216,1.098 13.275,0.928C13.246,0.035 12.89,-0.766 12.879,-1.581C13.025,-1.835 13.306,-1.871 13.5,-1.554C13.452,-1.01 13.513,-0.095 13.726,0.44C13.856,0.292 13.882,0.16 13.88,-0.02C14.114,-0.105 14.348,0.139 14.394,0.426C14.184,0.621 13.911,0.839 13.81,1.09C13.914,1.944 13.998,2.38 14.045,2.921C14.02,3.059 13.974,3.402 13.811,3.468M11.369,-0.387C11.603,-0.311 11.739,-0.293 11.761,0.046C11.956,0.014 11.841,-0.242 12.236,-0.038C12.377,0.134 12.393,0.192 12.273,0.446C12.129,0.63 11.984,0.814 11.841,1.004C11.908,1.255 11.898,1.317 11.934,1.378C12.019,1.364 12.142,1.21 12.272,1.143C12.24,1.402 12.104,1.478 11.947,1.664C12.009,2.049 12.241,2.676 12.028,3.004C11.548,3.161 11.604,2.489 11.56,2.215C11.544,2.205 11.53,2.2 11.516,2.195C11.267,2.436 11.049,2.718 10.771,2.523C10.657,2.372 10.871,2.04 11.07,1.758C11.173,1.638 11.438,1.161 11.467,1.058C11.45,0.993 11.44,0.927 11.43,0.863C11.415,0.858 11.402,0.854 11.387,0.85C11.203,1.04 10.875,1.494 10.569,1.429C10.361,1.262 10.345,1.244 10.278,1.074C10.637,1.016 11.047,0.649 11.33,0.41C11.288,0.148 11.224,-0.122 11.264,-0.337C11.061,-0.304 10.911,-0.153 10.742,-0.206C10.729,-0.246 10.74,-0.279 10.76,-0.303C11.416,-0.901 11.578,-1.064 11.688,-1.179C11.899,-1.358 11.818,-1.561 12.115,-1.418C12.296,-1.348 12.359,-1.06 12.295,-1.005C12.03,-0.781 11.662,-0.609 11.371,-0.421C11.365,-0.414 11.367,-0.4 11.369,-0.387M11.309,1.947C11.283,1.784 11.371,1.71 11.455,1.609C11.501,1.621 11.519,1.651 11.516,1.693C11.445,1.838 11.429,1.861 11.309,1.947M19.558,1.107C19.337,0.722 19.629,0.691 19.57,0.465C19.55,0.463 19.53,0.463 19.517,0.462C19.458,0.571 19.28,0.541 19.202,0.53C19.023,0.765 18.844,1 18.665,1.242C18.653,1.453 18.664,3.143 18.228,3.119C17.963,2.773 18.064,2.613 18.138,2.239C18.145,2.127 18.151,2.015 18.164,1.903C18.045,1.896 17.814,2.228 17.722,2.335C17.45,2.353 17.254,2.176 17.298,1.98C17.644,1.847 17.973,1.528 18.194,1.242C18.261,0.881 18.261,0.881 18.291,0.465C18.272,0.458 18.252,0.457 18.232,0.456C18.115,0.542 17.997,0.634 17.885,0.728C17.589,1.056 17.166,0.8 17.219,0.452C17.601,0.367 17.952,0.129 18.301,-0.064C18.403,-0.456 18.418,-0.839 18.418,-1.19C18.279,-1.43 18.563,-1.534 18.726,-1.617C19.203,-1.497 18.943,-1.108 18.878,-0.674C18.881,-0.594 18.883,-0.515 18.885,-0.429C18.971,-0.424 18.991,-0.549 19.144,-0.566C19.243,-0.51 19.284,-0.511 19.283,-0.32C18.711,0.072 18.799,-0.089 18.745,0.643C18.844,0.649 19.068,0.437 19.054,0.323C18.956,0.185 18.969,0.179 18.975,0.08C19.242,0.055 19.548,-0.086 19.832,-0.196C19.963,-0.52 20.008,-0.73 20.182,-1.223C20.493,-1.577 20.971,-1.007 20.948,-0.604C20.891,-0.415 20.232,-0.121 20.034,0.107C20.002,0.197 19.83,0.552 19.883,0.674C20.239,0.694 20.425,-0.017 20.924,0.302C21.024,0.407 21.094,0.458 21.109,0.651C20.844,1.007 20.514,1.452 20.364,1.888C20.718,2.318 20.993,2.373 21.601,2.513C21.554,2.63 20.91,2.892 20.774,2.957C20.251,3.074 20.153,2.571 20.039,2.247C19.657,2.563 19.3,2.795 18.795,2.574C18.79,2.554 18.784,2.534 18.785,2.514C19.079,2.365 19.358,2.341 19.606,2.05C20.016,1.828 19.283,1.436 19.357,1.181C19.345,1.102 19.455,1.096 19.545,1.132C19.619,1.222 19.894,1.475 20.041,1.511C20.124,1.331 20.187,1.149 20.315,0.997C20.172,0.956 20.043,1.114 19.926,1.187C19.816,1.162 19.668,1.127 19.558,1.107M24.338,2.833C24.27,2.772 24.275,2.791 24.187,2.699C24.145,2.644 24.157,2.627 24.222,2.651C24.447,2.701 24.646,2.743 24.89,2.742C25.272,2.734 25.682,2.63 25.966,2.362C25.746,2.26 25.464,2.333 25.244,2.345C25.061,2.213 24.856,1.673 24.894,1.553C25.076,1.562 25.84,1.87 25.978,1.782C26.752,1.919 26.862,1.565 27.322,0.951C27.463,0.734 27.744,0.121 27.941,0.108C28.06,0.293 28.139,0.635 28.181,0.904C27.987,1.229 27.553,1.478 27.399,1.848C27.74,2.021 27.956,1.688 28.272,2.121C28.293,2.193 28.293,2.193 28.276,2.262C28.105,2.351 27.721,2.285 27.554,2.255C27.066,2.252 27.066,2.252 26.942,2.277C26.303,2.753 25.269,3.519 24.338,2.833M26.619,4.256C26.518,4.069 26.527,4.034 26.523,3.893C26.576,3.596 26.664,2.695 26.848,2.519C26.878,2.524 26.903,2.534 26.933,2.548C26.945,2.589 26.961,2.634 26.978,2.678C26.978,3.332 27.052,3.851 27.644,4.353C27.652,4.375 27.66,4.398 27.67,4.429C27.564,4.508 26.767,4.29 26.619,4.256M33.348,4.009C33.339,3.977 33.329,3.946 33.324,3.918C33.387,3.832 33.487,3.684 33.582,3.811C33.554,3.873 33.522,3.939 33.43,4.043C33.399,4.029 33.374,4.019 33.348,4.009M31.05,7.54C30.721,7.014 30.695,6.937 30.559,6.765C30.57,6.749 30.582,6.733 30.59,6.722C30.946,6.907 31.104,7.072 31.425,6.732C31.688,6.359 31.944,6.03 32.118,5.634C32.109,5.611 32.101,5.588 32.094,5.575C31.52,5.476 31.035,5.761 30.473,5.77C30.195,5.567 30.142,5.291 30.047,5.05C30.062,5.029 30.078,5.008 30.09,4.992C30.897,5.088 31.721,5.301 32.546,5.225C32.721,5.17 33.155,4.944 33.096,4.84C32.89,4.582 32.095,4.922 31.852,4.458C31.854,4.419 31.869,4.397 31.892,4.381C32.477,4.459 32.979,4.48 33.548,4.555C33.783,4.367 34.122,4.294 34.389,4.152C34.505,4.09 34.591,4.005 34.652,3.902C34.544,3.692 34.09,3.616 33.961,3.751C33.874,4.116 33.812,4.405 33.368,4.432C33.078,4.398 32.982,4.209 32.867,3.986C32.929,3.63 33.164,3.621 33.32,3.408C33.203,3.298 32.993,3.35 32.886,3.419C32.836,3.506 32.795,3.598 32.775,3.707C32.75,3.853 32.784,4.126 32.498,4.11C32.414,4.086 32.371,3.796 32.308,3.775C32.162,3.751 32.166,3.926 32.005,3.989C31.946,3.981 31.919,4.018 31.898,3.878C31.98,3.491 31.984,2.932 32.137,2.571C32.381,2.58 32.269,2.896 32.443,3.072C32.456,3.065 32.476,3.064 32.495,3.061C32.565,2.727 32.6,2.384 32.526,2.126C32.525,2.085 32.534,2.05 32.552,2.023C32.7,1.942 32.84,2.403 32.875,2.568C32.873,2.739 32.872,2.91 32.872,3.089C33.011,3.224 33.16,3.177 33.305,3.045C33.297,2.876 33.27,2.734 33.3,2.624C33.481,2.657 33.599,2.899 33.821,2.864C33.93,2.771 34.043,2.682 34.153,2.599C34.28,2.68 34.587,3.061 34.356,3.253C34.306,3.291 34.248,3.322 34.193,3.364C34.351,3.479 34.941,3.491 35.104,3.525C35.355,3.614 35.648,4.227 35.265,4.545C35.171,4.614 34.705,4.538 34.475,4.518C34.215,4.549 34.215,4.549 33.997,4.612C33.92,4.752 33.925,4.756 33.985,4.988C33.932,5.456 33.332,5.077 33.198,5.397C33.344,5.511 33.627,5.778 33.537,6.057C33.391,6.137 32.905,6.118 32.787,6.006C32.906,5.765 32.906,5.765 32.898,5.718C32.859,5.671 32.816,5.63 32.748,5.633C32.461,5.735 32.051,6.534 31.854,6.84C31.737,7.09 31.484,7.741 31.05,7.54M-1.305,3.734L-2.242,3.288L-2.309,3.232L-2.333,3.207L-2.36,3.173L-2.373,3.154L-2.376,3.144L-2.379,3.138L-2.381,3.131L-2.383,3.122L-2.383,3.115L-2.381,3.107L-2.379,3.1L-2.376,3.093L-2.366,3.078L-2.353,3.068L-2.335,3.057L-2.321,3.05L-2.288,3.038L-2.225,3.022L-2.059,2.995L-1.949,2.983L-1.848,2.982L-1.756,2.99L-1.692,3.003L-1.633,3.021L-1.578,3.044L-1.528,3.072L-1.482,3.107L-1.44,3.147L-1.406,3.188L-1.375,3.232L-1.346,3.281L-1.299,3.392L-1.273,3.475L-1.235,3.666L-0.927,3.494L-1.058,2.753L-1.077,2.632L-1.078,2.58L-1.076,2.543L-1.07,2.51L-1.063,2.48L-1.052,2.454L-1.038,2.43L-1.026,2.415L-1.012,2.4L-0.992,2.384L-0.968,2.37L-0.941,2.36L-0.908,2.353L-0.871,2.349L-0.816,2.35L-0.776,2.353L-0.687,2.371L-0.65,2.369L-0.613,2.368L-0.574,2.373L-0.536,2.38L-0.461,2.404L-0.389,2.438L-0.32,2.483L-0.258,2.536L-0.203,2.594L-0.157,2.656L-0.121,2.721L-0.104,2.764L-0.093,2.807L-0.088,2.85L-0.089,2.88L-0.094,2.911L-0.101,2.933L-0.109,2.953L-0.12,2.974L-0.134,2.993L-0.481,3.411L-0.51,3.431L-0.537,3.455L-0.569,3.491L-0.598,3.535L-0.623,3.582L-0.645,3.634L-0.68,3.752L-0.707,3.882L-0.742,4.17L-0.39,4.29L-0.293,4.186L-0.252,4.131L-0.204,4.048L-0.18,3.984L-0.164,3.917L-0.16,3.865L-0.16,3.811L-0.169,3.757L-0.183,3.7L-0.203,3.672L-0.239,3.605L-0.267,3.532L-0.276,3.495L-0.283,3.45L-0.283,3.429L-0.281,3.415L-0.276,3.394L-0.272,3.386L-0.269,3.379L-0.261,3.369L-0.257,3.365L-0.252,3.361L-0.246,3.359L-0.24,3.356L-0.232,3.353L-0.223,3.351L-0.209,3.35L-0.2,3.351L-0.177,3.353L0.12,3.403L0.174,3.407L0.292,3.407L0.347,3.408L0.372,3.411L0.403,3.418L0.417,3.423L0.425,3.427L0.434,3.432L0.442,3.438L0.449,3.444L0.455,3.452L0.459,3.458L0.461,3.465L0.465,3.475L0.467,3.485L0.468,3.497L0.468,3.51L0.463,3.54L0.454,3.575L0.414,3.661L0.321,3.805L0.285,3.883L0.255,3.965L0.234,4.05L0.22,4.14L0.217,4.33L0.22,4.359L0.223,4.371L0.227,4.385L0.233,4.398L0.236,4.402L0.239,4.404L0.241,4.407L0.243,4.409L0.246,4.41L0.248,4.412L0.25,4.413L0.253,4.414L0.257,4.414L0.262,4.415L0.265,4.414L0.268,4.414L0.273,4.413L0.284,4.409L0.3,4.4L0.312,4.391L0.338,4.367L0.651,3.859L0.699,3.815L0.749,3.78L0.801,3.755L0.842,3.742L0.884,3.735L0.927,3.732L0.971,3.735L1.03,3.747L1.093,3.769L1.156,3.798L1.2,3.818L1.218,3.829L1.23,3.838L1.24,3.847L1.254,3.862L1.265,3.877L1.27,3.887L1.274,3.898L1.279,3.913L1.281,3.928L1.279,3.961L1.276,3.978L1.271,3.996L1.255,4.033L1.24,4.058L1.206,4.112L0.569,5.033L0.546,5.062L0.537,5.077L0.528,5.097L0.522,5.116L0.52,5.125L0.52,5.136L0.523,5.153L0.525,5.157L0.528,5.165L0.533,5.172L0.54,5.181L0.546,5.187L0.56,5.197L0.572,5.205L0.607,5.22L0.659,5.235L0.789,5.231L1.091,5.202L1.179,5.201L1.218,5.205L1.251,5.212L1.266,5.216L1.282,5.226L1.29,5.23L1.295,5.234L1.299,5.238L1.305,5.245L1.31,5.253L1.315,5.265L1.316,5.273L1.318,5.281L1.317,5.291L1.317,5.302L1.311,5.324L1.302,5.35L1.268,5.411L0.754,6.068L1.382,7.039L1.49,7.269L1.53,7.374L1.57,7.518L1.582,7.602L1.583,7.642L1.579,7.696L1.57,7.734L1.557,7.769L1.539,7.801L1.516,7.829L1.488,7.855L1.454,7.877L1.42,7.892L1.403,7.897L1.386,7.901L1.35,7.902L1.315,7.898L1.284,7.89L1.254,7.878L1.224,7.862L1.195,7.842L1.167,7.821L1.115,7.768L1.07,7.71L0.339,6.596L-0.39,7.496L-0.557,7.606L-0.628,7.639L-0.691,7.659L-0.719,7.664L-0.736,7.665L-0.768,7.663L-0.78,7.66L-0.789,7.657L-0.804,7.65L-0.817,7.642L-0.83,7.631L-0.841,7.62L-0.85,7.605L-0.859,7.589L-0.867,7.571L-0.874,7.544L-0.881,7.514L-0.884,7.48L-0.566,6.62L-0.158,5.845L-0.175,5.779L-0.185,5.753L-0.195,5.731L-0.201,5.721L-0.206,5.714L-0.211,5.706L-0.217,5.701L-0.222,5.696L-0.234,5.689L-0.241,5.687L-0.246,5.685L-0.258,5.685L-0.266,5.687L-0.273,5.688L-0.281,5.692L-0.298,5.702L-0.317,5.717L-0.356,5.76L-1.197,6.916L-1.307,7.057L-1.373,7.12L-1.429,7.163L-1.492,7.203L-1.566,7.239L-1.649,7.269L-1.745,7.295L-2.068,7.286L-2.198,7.142L-0.437,5.398L-0.662,5.099L-0.694,5.107L-0.721,5.12L-0.737,5.132L-0.751,5.143L-0.768,5.163L-0.782,5.184L-0.793,5.209L-0.814,5.27L-0.843,5.416L-0.876,5.572L-0.904,5.649L-1,5.862L-1.701,5.759L-1.703,5.752L-1.704,5.747L-1.704,5.734L-1.703,5.725L-1.701,5.717L-1.697,5.706L-1.687,5.684L-1.664,5.654L-1.615,5.591L-1.6,5.571L-1.596,5.561L-1.59,5.545L-1.588,5.537L-1.587,5.53L-1.587,5.521L-1.588,5.516L-1.589,5.509L-1.596,5.493L-1.601,5.484L-1.607,5.478L-1.615,5.469L-1.627,5.457L-1.638,5.45L-1.661,5.435L-1.914,5.193L-1.986,5.107L-2.006,5.076L-2.013,5.062L-2.02,5.044L-2.022,5.033L-2.022,5.022L-2.021,5.017L-2.019,5.014L-2.018,5.011L-2.015,5.009L-2.013,5.006L-2.006,5.001L-1.999,4.999L-1.994,4.998L-1.982,4.997L-1.96,4.997L-1.942,4.999L-1.902,5.007L-1.338,5.074L-1.309,5.075L-1.283,5.073L-1.26,5.069L-1.244,5.065L-1.23,5.059L-1.22,5.054L-1.211,5.047L-1.203,5.041L-1.195,5.033L-1.189,5.025L-1.183,5.016L-1.177,5.002L-1.172,4.988L-1.169,4.971L-1.182,4.933L-1.187,4.917L-1.19,4.895L-1.19,4.885L-1.188,4.868L-1.182,4.854L-1.178,4.849L-1.172,4.844L-1.166,4.84L-1.159,4.837L-1.147,4.834L-1.12,4.834L-1.087,4.84L-1.061,4.846L-1,4.868L-0.975,4.871L-0.952,4.871L-0.93,4.87L-0.916,4.868L-0.901,4.864L-0.882,4.856L-0.864,4.844L-0.849,4.83L-0.834,4.813L-0.822,4.793L-1.152,4.507L-1.168,4.447L-1.173,4.421L-1.176,4.384L-1.173,4.359L-1.169,4.337L-1.161,4.316L-1.151,4.299L-1.138,4.284L-1.123,4.27L-1.107,4.26L-1.089,4.252L-1.069,4.245L-1.023,4.236L-0.988,4.234L-0.909,4.237L-0.878,4.104L-0.874,4.052L-0.875,4.01L-0.878,3.992L-0.88,3.982L-0.885,3.972L-0.889,3.963L-0.896,3.952L-0.903,3.945L-0.91,3.939L-0.918,3.935L-0.927,3.931L-0.936,3.929L-0.947,3.928L-0.959,3.928L-0.973,3.93L-1.01,3.94L-1.674,4.568L-1.726,4.619L-1.812,4.718L-1.842,4.746L-1.857,4.758L-1.882,4.773L-1.902,4.783L-1.924,4.791L-1.956,4.798L-1.979,4.799L-2.005,4.798L-2.033,4.796L-2.218,4.767L-2.292,4.746L-2.325,4.735L-2.354,4.721L-2.379,4.707L-2.394,4.697L-2.406,4.686L-2.418,4.673L-2.425,4.664L-2.431,4.655L-2.438,4.64L-2.443,4.624L-2.445,4.607L-2.445,4.596L-2.444,4.584L-2.442,4.571L-2.438,4.56L-2.428,4.532L-2.412,4.503L-2.364,4.441L-1.305,3.734Z" style="fill:rgb(230,0,18);"/>
        </g>
        <g transform="matrix(1,0,0,1,229.509,99.1212)">
            <path d="M0,17.088L0.578,18.697L1.021,18.539C1.137,18.497 1.201,18.434 1.214,18.351C1.233,18.24 1.204,18.068 1.126,17.833L1.181,17.813L1.69,19.231L1.635,19.251C1.551,19.058 1.491,18.936 1.457,18.885C1.414,18.821 1.365,18.776 1.31,18.751C1.254,18.726 1.184,18.728 1.1,18.758L0.657,18.917L1.139,20.26C1.204,20.44 1.248,20.549 1.269,20.585C1.291,20.621 1.316,20.647 1.344,20.663C1.372,20.679 1.414,20.677 1.469,20.657L1.812,20.533C1.926,20.493 2.004,20.447 2.043,20.396C2.083,20.346 2.11,20.266 2.124,20.154C2.141,20.008 2.136,19.797 2.112,19.524L2.171,19.503L2.364,20.586L0.808,21.145L0.768,21.035L0.84,21.009C0.888,20.992 0.924,20.952 0.95,20.89C0.971,20.847 0.975,20.791 0.963,20.723C0.952,20.655 0.91,20.522 0.839,20.324L-0.111,17.678C-0.204,17.42 -0.274,17.265 -0.321,17.214C-0.386,17.147 -0.46,17.128 -0.543,17.158L-0.615,17.184L-0.655,17.072L0.901,16.513L1.244,17.397L1.185,17.418C1.088,17.212 1.012,17.073 0.958,17.002C0.904,16.931 0.844,16.883 0.78,16.859C0.729,16.843 0.654,16.853 0.554,16.889L0,17.088ZM-1.031,17.103L-0.488,18.47L-0.534,18.487C-0.745,18.095 -0.939,17.828 -1.119,17.687C-1.299,17.545 -1.468,17.503 -1.628,17.561C-1.762,17.609 -1.858,17.721 -1.917,17.897C-1.976,18.074 -1.983,18.322 -1.937,18.645C-1.891,18.967 -1.788,19.353 -1.627,19.799C-1.495,20.167 -1.352,20.477 -1.195,20.726C-1.04,20.975 -0.878,21.15 -0.708,21.252C-0.539,21.355 -0.379,21.378 -0.228,21.324C-0.097,21.277 -0.002,21.179 0.058,21.029C0.117,20.88 0.147,20.616 0.147,20.237L0.214,20.28C0.243,20.679 0.22,20.987 0.146,21.204C0.071,21.42 -0.059,21.562 -0.245,21.629C-0.579,21.749 -0.928,21.592 -1.291,21.156C-1.562,20.833 -1.788,20.419 -1.969,19.915C-2.115,19.509 -2.204,19.118 -2.236,18.745C-2.268,18.373 -2.238,18.065 -2.148,17.82C-2.056,17.577 -1.917,17.421 -1.729,17.354C-1.584,17.301 -1.414,17.321 -1.22,17.414C-1.163,17.443 -1.125,17.455 -1.107,17.449C-1.081,17.439 -1.064,17.411 -1.058,17.366C-1.051,17.304 -1.06,17.221 -1.083,17.122L-1.031,17.103ZM-4.641,18.265L-4.116,18.128L-2.221,20.973L-2.768,18.547C-2.826,18.289 -2.876,18.131 -2.917,18.074C-2.972,17.997 -3.037,17.968 -3.114,17.987L-3.181,18.005L-3.207,17.89L-2.533,17.714L-2.507,17.829L-2.576,17.847C-2.657,17.868 -2.703,17.938 -2.713,18.053C-2.719,18.125 -2.695,18.278 -2.642,18.514L-1.843,22.059L-1.894,22.072L-3.934,19.02L-3.35,21.61C-3.292,21.868 -3.243,22.026 -3.203,22.083C-3.147,22.161 -3.081,22.19 -3.006,22.17L-2.938,22.152L-2.912,22.267L-3.586,22.443L-3.611,22.328L-3.544,22.311C-3.462,22.289 -3.415,22.22 -3.405,22.103C-3.399,22.032 -3.423,21.878 -3.476,21.643L-4.135,18.718C-4.224,18.59 -4.288,18.507 -4.327,18.468C-4.366,18.431 -4.419,18.4 -4.483,18.375C-4.515,18.364 -4.559,18.366 -4.615,18.38L-4.641,18.265ZM-5.805,18.813L-5.431,20.475L-5.005,20.363C-4.895,20.335 -4.829,20.279 -4.808,20.197C-4.78,20.089 -4.791,19.915 -4.839,19.673L-4.786,19.659L-4.456,21.123L-4.509,21.137C-4.568,20.936 -4.611,20.808 -4.637,20.754C-4.671,20.686 -4.712,20.636 -4.76,20.605C-4.808,20.574 -4.873,20.569 -4.954,20.59L-5.379,20.701L-5.067,22.088C-5.025,22.274 -4.995,22.386 -4.979,22.424C-4.962,22.463 -4.942,22.491 -4.917,22.51C-4.893,22.529 -4.853,22.531 -4.8,22.518L-4.472,22.431C-4.363,22.403 -4.287,22.366 -4.245,22.319C-4.203,22.273 -4.17,22.196 -4.146,22.087C-4.116,21.943 -4.099,21.734 -4.096,21.46L-4.039,21.445L-3.967,22.542L-5.46,22.933L-5.486,22.819L-5.417,22.8C-5.372,22.789 -5.333,22.753 -5.303,22.694C-5.28,22.654 -5.271,22.599 -5.274,22.53C-5.279,22.46 -5.304,22.324 -5.35,22.119L-5.966,19.387C-6.026,19.12 -6.076,18.959 -6.115,18.904C-6.167,18.83 -6.234,18.804 -6.314,18.824L-6.382,18.842L-6.408,18.727L-4.916,18.337L-4.687,19.252L-4.743,19.267C-4.813,19.051 -4.869,18.905 -4.912,18.829C-4.955,18.753 -5.005,18.699 -5.062,18.667C-5.107,18.647 -5.178,18.649 -5.274,18.674L-5.805,18.813ZM-10.142,19.347L-9.827,20.807L-9.881,20.82C-9.96,20.543 -10.04,20.328 -10.121,20.173C-10.203,20.016 -10.298,19.9 -10.404,19.823C-10.51,19.745 -10.608,19.717 -10.699,19.739C-10.802,19.763 -10.873,19.848 -10.912,19.996C-10.95,20.143 -10.952,20.301 -10.915,20.469C-10.887,20.598 -10.841,20.711 -10.775,20.806C-10.681,20.948 -10.49,21.121 -10.203,21.326C-9.97,21.494 -9.806,21.627 -9.714,21.724C-9.62,21.821 -9.538,21.943 -9.469,22.087C-9.398,22.232 -9.345,22.389 -9.308,22.556C-9.239,22.876 -9.239,23.165 -9.307,23.425C-9.375,23.684 -9.502,23.835 -9.688,23.879C-9.747,23.892 -9.804,23.896 -9.859,23.889C-9.891,23.886 -9.964,23.863 -10.074,23.821C-10.184,23.777 -10.253,23.758 -10.278,23.765C-10.303,23.77 -10.319,23.791 -10.327,23.825C-10.335,23.859 -10.331,23.926 -10.317,24.026L-10.372,24.039L-10.685,22.591L-10.63,22.578C-10.539,22.875 -10.455,23.093 -10.379,23.234C-10.303,23.374 -10.209,23.484 -10.098,23.563C-9.988,23.641 -9.879,23.668 -9.772,23.643C-9.649,23.614 -9.566,23.523 -9.523,23.369C-9.481,23.215 -9.48,23.045 -9.521,22.858C-9.543,22.754 -9.579,22.653 -9.629,22.553C-9.679,22.453 -9.743,22.365 -9.82,22.287C-9.872,22.234 -10.006,22.126 -10.221,21.964C-10.437,21.802 -10.594,21.669 -10.693,21.566C-10.792,21.462 -10.876,21.342 -10.945,21.206C-11.014,21.069 -11.067,20.913 -11.105,20.739C-11.17,20.436 -11.171,20.162 -11.107,19.918C-11.044,19.673 -10.927,19.531 -10.756,19.491C-10.649,19.466 -10.524,19.493 -10.381,19.576C-10.314,19.615 -10.269,19.631 -10.247,19.626C-10.221,19.62 -10.203,19.599 -10.194,19.564C-10.185,19.527 -10.186,19.459 -10.197,19.36L-10.142,19.347ZM-7.817,18.887L-7.461,20.311L-7.507,20.322C-7.661,19.907 -7.815,19.618 -7.969,19.455C-8.124,19.293 -8.281,19.23 -8.44,19.267C-8.574,19.299 -8.679,19.398 -8.756,19.566C-8.833,19.733 -8.869,19.979 -8.863,20.305C-8.857,20.631 -8.805,21.026 -8.705,21.489C-8.623,21.87 -8.522,22.195 -8.403,22.462C-8.284,22.728 -8.15,22.922 -8.001,23.044C-7.851,23.167 -7.701,23.21 -7.551,23.175C-7.421,23.144 -7.318,23.059 -7.243,22.918C-7.169,22.777 -7.109,22.519 -7.065,22.142L-7.006,22.193C-7.025,22.593 -7.083,22.896 -7.18,23.101C-7.277,23.307 -7.418,23.432 -7.603,23.475C-7.936,23.553 -8.25,23.354 -8.545,22.877C-8.765,22.523 -8.931,22.084 -9.044,21.561C-9.135,21.14 -9.174,20.742 -9.16,20.368C-9.147,19.994 -9.082,19.692 -8.966,19.461C-8.85,19.23 -8.699,19.093 -8.512,19.05C-8.367,19.016 -8.207,19.056 -8.033,19.172C-7.982,19.208 -7.947,19.224 -7.93,19.221C-7.903,19.214 -7.884,19.189 -7.873,19.145C-7.859,19.083 -7.858,19 -7.868,18.899L-7.817,18.887ZM-5.809,22.749L-5.784,22.864L-6.646,23.066L-6.67,22.951L-6.599,22.934C-6.516,22.915 -6.467,22.85 -6.452,22.739C-6.442,22.667 -6.464,22.504 -6.519,22.251L-7.108,19.523C-7.154,19.309 -7.191,19.17 -7.219,19.105C-7.24,19.055 -7.27,19.015 -7.308,18.985C-7.363,18.945 -7.414,18.931 -7.461,18.942L-7.533,18.959L-7.557,18.843L-6.695,18.641L-6.67,18.757L-6.743,18.774C-6.826,18.794 -6.874,18.859 -6.89,18.968C-6.9,19.041 -6.878,19.204 -6.824,19.456L-6.235,22.185C-6.188,22.398 -6.151,22.538 -6.124,22.603C-6.103,22.653 -6.072,22.693 -6.033,22.723C-5.979,22.763 -5.929,22.778 -5.881,22.766L-5.809,22.749ZM-18.967,19.057L-19.206,20.044L-19.264,20.028C-19.229,19.853 -19.211,19.725 -19.211,19.645C-19.211,19.518 -19.23,19.419 -19.267,19.349C-19.304,19.278 -19.365,19.231 -19.451,19.208L-19.743,19.13L-20.595,22.326C-20.663,22.583 -20.692,22.746 -20.682,22.818C-20.667,22.915 -20.618,22.974 -20.538,22.995L-20.466,23.014L-20.496,23.128L-21.375,22.893L-21.345,22.78L-21.271,22.8C-21.183,22.823 -21.107,22.786 -21.042,22.688C-21.002,22.629 -20.951,22.481 -20.888,22.248L-20.036,19.052L-20.285,18.986C-20.382,18.96 -20.455,18.956 -20.503,18.974C-20.566,18.999 -20.632,19.062 -20.699,19.163C-20.767,19.264 -20.829,19.408 -20.887,19.596L-20.944,19.58L-20.658,18.605L-18.967,19.057ZM-22.436,22.545L-22.479,22.655L-23.335,22.318L-23.292,22.209L-23.221,22.237C-23.138,22.269 -23.059,22.244 -22.984,22.161C-22.936,22.108 -22.864,21.959 -22.769,21.718L-21.747,19.115C-21.667,18.912 -21.62,18.774 -21.607,18.704C-21.598,18.65 -21.601,18.601 -21.617,18.553C-21.642,18.488 -21.678,18.447 -21.725,18.429L-21.796,18.401L-21.753,18.29L-20.897,18.626L-20.94,18.737L-21.013,18.708C-21.094,18.677 -21.173,18.702 -21.248,18.783C-21.298,18.838 -21.37,18.985 -21.464,19.226L-22.487,21.829C-22.567,22.033 -22.613,22.17 -22.626,22.24C-22.635,22.294 -22.632,22.345 -22.615,22.392C-22.591,22.457 -22.556,22.499 -22.509,22.517L-22.436,22.545ZM-26.388,16.987L-27.198,18.49L-26.782,18.715C-26.675,18.773 -26.585,18.78 -26.514,18.734C-26.419,18.674 -26.311,18.537 -26.188,18.323L-26.137,18.351L-26.85,19.675L-26.9,19.647C-26.815,19.455 -26.764,19.329 -26.748,19.27C-26.73,19.196 -26.729,19.129 -26.748,19.071C-26.766,19.013 -26.814,18.962 -26.893,18.92L-27.308,18.695L-27.983,19.949C-28.074,20.118 -28.125,20.222 -28.138,20.262C-28.15,20.303 -28.152,20.339 -28.146,20.371C-28.138,20.402 -28.109,20.431 -28.057,20.46L-27.736,20.633C-27.63,20.691 -27.544,20.719 -27.479,20.714C-27.415,20.71 -27.337,20.677 -27.245,20.613C-27.126,20.529 -26.972,20.385 -26.786,20.185L-26.73,20.215L-27.406,21.08L-28.863,20.291L-28.807,20.188L-28.74,20.225C-28.695,20.249 -28.641,20.249 -28.578,20.228C-28.532,20.214 -28.488,20.18 -28.445,20.127C-28.402,20.072 -28.331,19.953 -28.231,19.768L-26.901,17.297C-26.771,17.056 -26.703,16.901 -26.697,16.831C-26.69,16.739 -26.726,16.671 -26.804,16.629L-26.871,16.592L-26.814,16.488L-25.358,17.277L-25.786,18.12L-25.841,18.091C-25.752,17.88 -25.7,17.732 -25.683,17.644C-25.667,17.557 -25.671,17.48 -25.696,17.416C-25.718,17.368 -25.777,17.318 -25.87,17.267L-26.388,16.987ZM-17.519,19.302L-16.775,19.386L-16.789,19.504L-16.829,19.499C-16.857,19.496 -16.899,19.515 -16.957,19.558C-17.015,19.601 -17.07,19.665 -17.123,19.751C-17.176,19.837 -17.246,19.979 -17.332,20.178L-18.029,21.753L-18.15,22.832C-18.18,23.096 -18.184,23.262 -18.162,23.332C-18.132,23.425 -18.075,23.477 -17.988,23.486L-17.92,23.494L-17.933,23.611L-18.837,23.509L-18.824,23.392L-18.749,23.4C-18.659,23.411 -18.589,23.362 -18.539,23.256C-18.509,23.193 -18.479,23.039 -18.453,22.798L-18.338,21.78L-18.721,19.912C-18.766,19.694 -18.798,19.556 -18.816,19.5C-18.835,19.445 -18.879,19.375 -18.946,19.293C-18.967,19.269 -18.996,19.256 -19.036,19.251L-19.022,19.133L-18.111,19.236L-18.124,19.353L-18.171,19.348C-18.221,19.343 -18.268,19.359 -18.315,19.402C-18.362,19.444 -18.39,19.512 -18.401,19.605C-18.409,19.681 -18.393,19.822 -18.351,20.027L-18.062,21.464L-17.495,20.185C-17.41,19.993 -17.362,19.85 -17.351,19.752C-17.344,19.692 -17.346,19.638 -17.356,19.59C-17.366,19.542 -17.384,19.504 -17.409,19.474C-17.434,19.444 -17.475,19.426 -17.532,19.42L-17.519,19.302ZM-22.104,18.159L-22.621,19.564L-22.676,19.544C-22.595,19.267 -22.547,19.041 -22.534,18.864C-22.521,18.687 -22.541,18.536 -22.591,18.412C-22.642,18.286 -22.712,18.207 -22.804,18.173C-22.906,18.136 -23.015,18.167 -23.129,18.27C-23.243,18.372 -23.329,18.504 -23.389,18.665C-23.435,18.789 -23.455,18.91 -23.45,19.027C-23.443,19.199 -23.371,19.453 -23.232,19.787C-23.119,20.06 -23.048,20.263 -23.02,20.398C-22.991,20.532 -22.985,20.68 -23.003,20.841C-23.02,21.003 -23.058,21.164 -23.117,21.326C-23.23,21.633 -23.387,21.876 -23.588,22.055C-23.788,22.235 -23.981,22.29 -24.167,22.222C-24.226,22.2 -24.277,22.171 -24.322,22.133C-24.349,22.113 -24.399,22.053 -24.473,21.955C-24.545,21.856 -24.595,21.802 -24.621,21.793C-24.646,21.783 -24.67,21.791 -24.696,21.816C-24.721,21.84 -24.755,21.898 -24.797,21.99L-24.851,21.97L-24.339,20.577L-24.284,20.598C-24.365,20.898 -24.411,21.129 -24.421,21.29C-24.43,21.451 -24.408,21.596 -24.354,21.724C-24.299,21.853 -24.219,21.937 -24.112,21.976C-23.989,22.021 -23.867,21.992 -23.746,21.887C-23.626,21.781 -23.533,21.639 -23.467,21.459C-23.43,21.359 -23.407,21.254 -23.396,21.142C-23.386,21.029 -23.393,20.92 -23.419,20.81C-23.435,20.736 -23.494,20.57 -23.594,20.312C-23.695,20.054 -23.76,19.854 -23.79,19.712C-23.82,19.568 -23.828,19.42 -23.815,19.267C-23.801,19.113 -23.763,18.952 -23.701,18.785C-23.594,18.493 -23.446,18.263 -23.258,18.093C-23.069,17.923 -22.89,17.87 -22.719,17.933C-22.612,17.972 -22.517,18.066 -22.437,18.217C-22.4,18.287 -22.37,18.326 -22.348,18.334C-22.322,18.344 -22.294,18.336 -22.267,18.312C-22.239,18.286 -22.203,18.228 -22.159,18.139L-22.104,18.159ZM-25.443,19.329C-25.425,19.34 -25.41,19.348 -25.398,19.356C-25.386,19.364 -25.375,19.371 -25.368,19.375C-25.189,19.475 -25.01,19.473 -24.833,19.367C-24.655,19.262 -24.499,19.089 -24.363,18.847C-24.232,18.612 -24.161,18.399 -24.152,18.21C-24.142,18.023 -24.198,17.894 -24.319,17.826C-24.372,17.797 -24.454,17.775 -24.565,17.758L-25.443,19.329ZM-25.199,22.015L-25.699,21.735L-25.345,19.615C-25.394,19.592 -25.433,19.572 -25.462,19.556C-25.474,19.549 -25.487,19.542 -25.5,19.533C-25.514,19.525 -25.527,19.516 -25.542,19.505L-26.155,20.602C-26.287,20.841 -26.357,20.995 -26.364,21.067C-26.374,21.169 -26.344,21.239 -26.275,21.278L-26.201,21.319L-26.259,21.422L-27.061,20.973L-27.003,20.871L-26.933,20.91C-26.854,20.954 -26.768,20.934 -26.677,20.849C-26.625,20.802 -26.538,20.67 -26.418,20.456L-25.054,18.015C-24.921,17.777 -24.852,17.622 -24.845,17.551C-24.835,17.449 -24.867,17.378 -24.937,17.339L-25.008,17.299L-24.95,17.196L-24.268,17.577C-24.069,17.688 -23.939,17.799 -23.877,17.911C-23.816,18.021 -23.796,18.174 -23.817,18.368C-23.84,18.562 -23.911,18.767 -24.033,18.985C-24.163,19.217 -24.312,19.397 -24.483,19.527C-24.653,19.655 -24.837,19.711 -25.034,19.693L-25.253,20.993C-25.304,21.291 -25.32,21.5 -25.303,21.617C-25.284,21.733 -25.231,21.832 -25.141,21.912L-25.199,22.015ZM-13.176,19.663L-13.176,21.364L-12.786,21.364C-12.696,21.364 -12.63,21.324 -12.589,21.245C-12.547,21.165 -12.52,21.007 -12.505,20.77L-12.447,20.77L-12.447,22.235L-12.505,22.235C-12.507,22.067 -12.517,21.944 -12.538,21.865C-12.558,21.786 -12.587,21.727 -12.624,21.688C-12.66,21.649 -12.714,21.629 -12.786,21.629L-13.176,21.629L-13.176,22.989C-13.176,23.208 -13.169,23.353 -13.155,23.422C-13.145,23.476 -13.123,23.521 -13.089,23.559C-13.043,23.611 -12.995,23.637 -12.944,23.637L-12.866,23.637L-12.866,23.754L-13.787,23.754L-13.787,23.637L-13.711,23.637C-13.622,23.637 -13.558,23.584 -13.518,23.48C-13.492,23.412 -13.48,23.248 -13.48,22.989L-13.48,20.192C-13.48,19.974 -13.487,19.829 -13.501,19.759C-13.511,19.705 -13.533,19.66 -13.565,19.621C-13.611,19.57 -13.659,19.545 -13.711,19.545L-13.787,19.545L-13.787,19.426L-12.191,19.426L-12.17,20.377L-12.226,20.377C-12.253,20.176 -12.285,20.028 -12.321,19.933C-12.358,19.838 -12.402,19.77 -12.456,19.727C-12.509,19.685 -12.592,19.663 -12.703,19.663L-13.176,19.663ZM-15.112,19.561C-15.304,19.561 -15.458,19.704 -15.574,19.992C-15.718,20.349 -15.79,20.872 -15.79,21.562C-15.79,22.269 -15.715,22.812 -15.566,23.192C-15.451,23.482 -15.299,23.627 -15.11,23.627C-14.909,23.627 -14.742,23.468 -14.611,23.151C-14.48,22.834 -14.414,22.334 -14.414,21.651C-14.414,20.911 -14.486,20.359 -14.631,19.995C-14.747,19.705 -14.907,19.561 -15.112,19.561M-15.082,19.329C-14.803,19.329 -14.562,19.541 -14.358,19.968C-14.154,20.395 -14.052,20.926 -14.052,21.565C-14.052,22.223 -14.155,22.769 -14.361,23.202C-14.566,23.637 -14.815,23.853 -15.107,23.853C-15.402,23.853 -15.65,23.641 -15.851,23.218C-16.052,22.795 -16.152,22.247 -16.152,21.575C-16.152,20.887 -16.036,20.327 -15.805,19.893C-15.603,19.516 -15.362,19.329 -15.082,19.329M-26.984,16.497L-27.044,16.599C-27.124,16.583 -27.198,16.596 -27.267,16.637C-27.368,16.698 -27.492,16.81 -27.638,16.973L-30.146,19.759L-30.196,19.73L-29.002,16.111C-28.941,15.925 -28.907,15.81 -28.9,15.765C-28.889,15.695 -28.891,15.634 -28.906,15.582C-28.92,15.53 -28.953,15.484 -29.004,15.441L-28.943,15.339L-28.187,15.786L-28.248,15.888C-28.342,15.853 -28.416,15.85 -28.466,15.876C-28.515,15.904 -28.561,15.95 -28.599,16.016C-28.653,16.108 -28.716,16.263 -28.788,16.481L-29.601,18.942L-27.898,17.045C-27.73,16.858 -27.622,16.724 -27.573,16.641C-27.541,16.588 -27.524,16.529 -27.523,16.465C-27.521,16.401 -27.545,16.341 -27.596,16.284C-27.6,16.28 -27.606,16.272 -27.615,16.262L-27.555,16.16L-26.984,16.497ZM-31.888,18.523L-31.965,18.611L-32.659,18.008L-32.583,17.919L-32.525,17.969C-32.458,18.028 -32.375,18.03 -32.276,17.978C-32.213,17.943 -32.095,17.828 -31.925,17.632L-30.091,15.521C-29.948,15.355 -29.858,15.242 -29.823,15.18C-29.796,15.132 -29.782,15.084 -29.781,15.034C-29.783,14.965 -29.803,14.914 -29.841,14.881L-29.899,14.831L-29.821,14.742L-29.127,15.344L-29.205,15.434L-29.264,15.383C-29.33,15.326 -29.412,15.323 -29.51,15.375C-29.575,15.41 -29.693,15.524 -29.863,15.72L-31.696,17.831C-31.84,17.996 -31.93,18.11 -31.965,18.171C-31.992,18.219 -32.005,18.268 -32.005,18.319C-32.005,18.387 -31.985,18.438 -31.947,18.472L-31.888,18.523ZM-31.94,12.92L-31.501,13.302L-32.644,16.611L-31.005,14.729C-30.83,14.529 -30.732,14.393 -30.711,14.325C-30.682,14.232 -30.699,14.157 -30.763,14.102L-30.819,14.053L-30.741,13.964L-30.178,14.454L-30.256,14.544L-30.313,14.493C-30.382,14.434 -30.467,14.434 -30.568,14.492C-30.63,14.528 -30.741,14.637 -30.9,14.821L-33.295,17.571L-33.338,17.533L-32.116,13.977L-33.866,15.987C-34.04,16.187 -34.139,16.321 -34.161,16.39C-34.19,16.484 -34.172,16.559 -34.109,16.613L-34.052,16.663L-34.13,16.751L-34.692,16.261L-34.615,16.173L-34.559,16.221C-34.49,16.282 -34.405,16.282 -34.303,16.224C-34.241,16.188 -34.13,16.078 -33.971,15.896L-31.995,13.626C-31.945,13.474 -31.917,13.37 -31.91,13.313C-31.904,13.257 -31.911,13.193 -31.931,13.122C-31.942,13.088 -31.971,13.05 -32.018,13.009L-31.94,12.92ZM-32.5,12.544L-32.409,12.468L-31.924,13.053L-32.016,13.129L-32.068,13.066C-32.121,13.001 -32.217,12.997 -32.356,13.053C-32.421,13.078 -32.546,13.167 -32.731,13.32L-34.083,14.439C-34.418,14.716 -34.691,14.914 -34.902,15.033C-35.114,15.153 -35.326,15.22 -35.537,15.232C-35.749,15.245 -35.923,15.169 -36.06,15.003C-36.21,14.823 -36.26,14.634 -36.21,14.436C-36.162,14.238 -36.047,14.032 -35.866,13.816C-35.741,13.669 -35.479,13.43 -35.077,13.097L-33.774,12.019C-33.569,11.849 -33.446,11.725 -33.406,11.643C-33.365,11.563 -33.371,11.491 -33.422,11.429L-33.474,11.366L-33.382,11.29L-32.791,12.005L-32.883,12.08L-32.935,12.017C-32.992,11.949 -33.075,11.935 -33.186,11.979C-33.262,12.007 -33.394,12.099 -33.58,12.253L-35.034,13.456C-35.163,13.563 -35.307,13.691 -35.464,13.841C-35.621,13.991 -35.734,14.121 -35.802,14.229C-35.87,14.337 -35.91,14.445 -35.922,14.553C-35.935,14.662 -35.907,14.758 -35.837,14.843C-35.747,14.951 -35.619,15.008 -35.454,15.015C-35.289,15.021 -35.119,14.98 -34.944,14.888C-34.77,14.796 -34.506,14.604 -34.152,14.311L-32.802,13.194C-32.594,13.021 -32.473,12.902 -32.44,12.837C-32.394,12.745 -32.397,12.668 -32.448,12.606L-32.5,12.544ZM-34.042,10.698L-35.317,11.188L-35.335,11.136C-35.031,10.974 -34.811,10.823 -34.676,10.683C-34.482,10.483 -34.417,10.288 -34.481,10.098C-34.569,9.839 -34.842,9.712 -35.3,9.718C-35.687,9.723 -36.121,9.807 -36.602,9.971C-36.993,10.103 -37.338,10.262 -37.634,10.445C-37.932,10.63 -38.135,10.808 -38.243,10.98C-38.352,11.153 -38.385,11.303 -38.342,11.431C-38.317,11.506 -38.273,11.572 -38.21,11.628C-38.149,11.685 -38.069,11.733 -37.973,11.773L-36.788,11.371C-36.583,11.301 -36.451,11.248 -36.392,11.211C-36.334,11.175 -36.294,11.134 -36.272,11.09C-36.249,11.047 -36.252,10.984 -36.28,10.902L-36.165,10.863L-35.899,11.649L-36.013,11.688L-36.026,11.651C-36.053,11.573 -36.123,11.537 -36.238,11.544C-36.319,11.549 -36.47,11.59 -36.689,11.664L-37.943,12.089C-38.107,12.017 -38.237,11.934 -38.334,11.842C-38.429,11.75 -38.502,11.636 -38.548,11.499C-38.681,11.107 -38.528,10.723 -38.09,10.346C-37.76,10.064 -37.348,9.839 -36.85,9.67C-36.49,9.548 -36.129,9.474 -35.769,9.447C-35.342,9.416 -34.992,9.453 -34.72,9.559C-34.494,9.649 -34.348,9.795 -34.279,9.998C-34.254,10.072 -34.243,10.143 -34.247,10.212C-34.25,10.28 -34.275,10.384 -34.32,10.523C-34.343,10.593 -34.351,10.638 -34.345,10.656C-34.338,10.675 -34.315,10.686 -34.275,10.687C-34.236,10.689 -34.164,10.674 -34.061,10.642L-34.042,10.698ZM-35.463,6.885L-35.285,7.439L-37.977,9.678L-35.601,8.917C-35.347,8.836 -35.193,8.771 -35.14,8.723C-35.067,8.659 -35.043,8.587 -35.069,8.506L-35.092,8.436L-34.978,8.399L-34.751,9.11L-34.864,9.146L-34.887,9.074C-34.915,8.987 -34.987,8.944 -35.104,8.941C-35.176,8.94 -35.327,8.976 -35.558,9.05L-39.031,10.162L-39.048,10.107L-36.161,7.698L-38.699,8.511C-38.953,8.591 -39.106,8.656 -39.16,8.703C-39.233,8.768 -39.257,8.841 -39.232,8.92L-39.209,8.992L-39.321,9.028L-39.548,8.317L-39.436,8.282L-39.413,8.352C-39.385,8.44 -39.313,8.484 -39.195,8.487C-39.124,8.488 -38.972,8.452 -38.742,8.378L-35.876,7.461C-35.755,7.357 -35.677,7.282 -35.642,7.237C-35.607,7.192 -35.58,7.134 -35.56,7.063C-35.552,7.028 -35.557,6.981 -35.576,6.922L-35.463,6.885ZM-37.699,3.881L-37.827,4.869L-36.599,5.028C-36.38,5.056 -36.234,5.068 -36.163,5.063C-36.109,5.06 -36.061,5.044 -36.019,5.015C-35.962,4.977 -35.931,4.932 -35.924,4.882L-35.915,4.807L-35.797,4.822L-35.914,5.732L-36.032,5.717L-36.023,5.641C-36.016,5.592 -36.034,5.541 -36.077,5.49C-36.105,5.452 -36.154,5.422 -36.221,5.401C-36.289,5.38 -36.427,5.357 -36.638,5.33L-39.407,4.972C-39.624,4.944 -39.769,4.931 -39.84,4.936C-39.894,4.94 -39.942,4.955 -39.984,4.983C-40.041,5.023 -40.073,5.068 -40.08,5.117L-40.09,5.193L-40.206,5.178L-40.088,4.268L-39.972,4.283L-39.982,4.358C-39.993,4.445 -39.949,4.515 -39.851,4.568C-39.787,4.603 -39.626,4.637 -39.368,4.67L-38.061,4.839L-37.934,3.851L-39.241,3.682C-39.458,3.654 -39.603,3.642 -39.673,3.647C-39.728,3.65 -39.776,3.667 -39.818,3.695C-39.875,3.734 -39.907,3.777 -39.913,3.828L-39.923,3.905L-40.04,3.89L-39.922,2.979L-39.806,2.994L-39.815,3.069C-39.826,3.157 -39.783,3.227 -39.684,3.28C-39.62,3.314 -39.459,3.348 -39.202,3.381L-36.432,3.739C-36.213,3.767 -36.068,3.779 -35.997,3.774C-35.942,3.77 -35.894,3.755 -35.852,3.727C-35.796,3.688 -35.765,3.643 -35.758,3.593L-35.749,3.518L-35.631,3.533L-35.748,4.444L-35.866,4.429L-35.856,4.352C-35.849,4.302 -35.867,4.252 -35.91,4.2C-35.939,4.163 -35.988,4.134 -36.055,4.113C-36.122,4.091 -36.261,4.067 -36.471,4.04L-37.699,3.881ZM-35.777,6.512C-35.785,6.321 -35.935,6.173 -36.228,6.069C-36.59,5.939 -37.116,5.889 -37.805,5.918C-38.511,5.947 -39.051,6.045 -39.425,6.21C-39.709,6.337 -39.848,6.495 -39.84,6.683C-39.831,6.885 -39.666,7.044 -39.343,7.162C-39.021,7.28 -38.519,7.325 -37.837,7.296C-37.098,7.266 -36.549,7.171 -36.192,7.011C-35.907,6.883 -35.769,6.717 -35.777,6.512M-35.544,6.533C-35.533,6.811 -35.735,7.061 -36.153,7.282C-36.571,7.504 -37.098,7.629 -37.736,7.655C-38.393,7.682 -38.943,7.602 -39.384,7.414C-39.827,7.227 -40.054,6.987 -40.066,6.696C-40.078,6.401 -39.876,6.144 -39.462,5.926C-39.048,5.707 -38.504,5.584 -37.833,5.556C-37.146,5.528 -36.582,5.62 -36.138,5.834C-35.753,6.02 -35.556,6.253 -35.544,6.533M-35.444,3.172L-39.438,1.571L-39.48,2.45C-39.486,2.585 -39.431,2.691 -39.317,2.768C-39.2,2.846 -38.963,2.922 -38.602,2.995L-38.623,3.046L-39.763,2.891L-39.68,1.146L-39.562,1.152L-35.682,2.714L-35.649,2.029C-35.644,1.915 -35.665,1.831 -35.711,1.778C-35.759,1.725 -35.83,1.682 -35.923,1.65C-36.016,1.619 -36.192,1.586 -36.45,1.552L-36.447,1.492L-35.369,1.588L-35.444,3.172ZM-37.618,0.47L-35.857,0.766L-37.35,-0.217L-37.618,0.47ZM-37.854,0.425L-37.553,-0.348L-38.136,-0.732C-38.279,-0.827 -38.389,-0.889 -38.467,-0.919C-38.528,-0.943 -38.587,-0.95 -38.645,-0.939C-38.703,-0.928 -38.758,-0.878 -38.81,-0.787L-38.919,-0.829L-38.674,-1.459L-38.565,-1.416C-38.567,-1.32 -38.549,-1.252 -38.511,-1.209C-38.436,-1.121 -38.264,-0.99 -37.997,-0.816L-34.954,1.182L-34.974,1.233L-38.598,0.62C-38.89,0.571 -39.084,0.553 -39.182,0.568C-39.28,0.582 -39.351,0.628 -39.393,0.706L-39.502,0.663L-39.194,-0.126L-39.085,-0.083C-39.108,0 -39.101,0.065 -39.067,0.111C-39.033,0.156 -38.983,0.192 -38.917,0.218C-38.829,0.252 -38.685,0.285 -38.481,0.32L-37.854,0.425ZM-34.411,0.099L-34.307,0.156L-34.677,0.82L-34.781,0.762L-34.741,0.692C-34.7,0.618 -34.731,0.527 -34.833,0.418C-34.881,0.366 -35.008,0.282 -35.219,0.165L-36.752,-0.688C-37.132,-0.9 -37.416,-1.082 -37.603,-1.235C-37.792,-1.389 -37.931,-1.563 -38.019,-1.754C-38.108,-1.947 -38.101,-2.138 -37.996,-2.326C-37.882,-2.53 -37.724,-2.646 -37.522,-2.671C-37.32,-2.698 -37.086,-2.666 -36.82,-2.576C-36.638,-2.513 -36.319,-2.356 -35.863,-2.102L-34.385,-1.279C-34.153,-1.15 -33.992,-1.081 -33.902,-1.072C-33.812,-1.064 -33.747,-1.095 -33.708,-1.166L-33.668,-1.237L-33.565,-1.179L-34.015,-0.369L-34.119,-0.427L-34.079,-0.498C-34.036,-0.576 -34.054,-0.659 -34.134,-0.746C-34.188,-0.807 -34.322,-0.896 -34.533,-1.014L-36.181,-1.931C-36.328,-2.013 -36.5,-2.1 -36.697,-2.192C-36.894,-2.283 -37.056,-2.342 -37.181,-2.366C-37.306,-2.39 -37.421,-2.388 -37.527,-2.36C-37.633,-2.333 -37.712,-2.271 -37.765,-2.175C-37.834,-2.053 -37.84,-1.913 -37.786,-1.757C-37.733,-1.6 -37.632,-1.457 -37.483,-1.328C-37.335,-1.199 -37.06,-1.022 -36.658,-0.799L-35.127,0.054C-34.891,0.185 -34.736,0.254 -34.663,0.261C-34.561,0.271 -34.49,0.24 -34.451,0.169L-34.411,0.099ZM-34.454,-3.71L-34.939,-2.839L-33.856,-2.237C-33.663,-2.129 -33.532,-2.064 -33.465,-2.042C-33.413,-2.026 -33.362,-2.023 -33.312,-2.034C-33.246,-2.048 -33.2,-2.078 -33.176,-2.123L-33.139,-2.188L-33.035,-2.131L-33.481,-1.329L-33.585,-1.387L-33.548,-1.453C-33.523,-1.497 -33.521,-1.551 -33.542,-1.614C-33.555,-1.661 -33.589,-1.706 -33.644,-1.75C-33.698,-1.794 -33.818,-1.868 -34.004,-1.971L-36.444,-3.329C-36.636,-3.436 -36.765,-3.501 -36.833,-3.522C-36.884,-3.539 -36.935,-3.543 -36.984,-3.532C-37.052,-3.516 -37.098,-3.487 -37.123,-3.443L-37.159,-3.376L-37.262,-3.434L-36.816,-4.235L-36.713,-4.178L-36.75,-4.112C-36.793,-4.036 -36.778,-3.954 -36.707,-3.868C-36.66,-3.812 -36.523,-3.721 -36.296,-3.595L-35.145,-2.954L-34.66,-3.825L-35.812,-4.466C-36.003,-4.572 -36.133,-4.637 -36.201,-4.659C-36.253,-4.675 -36.303,-4.678 -36.353,-4.667C-36.42,-4.653 -36.466,-4.623 -36.49,-4.579L-36.528,-4.511L-36.631,-4.568L-36.184,-5.371L-36.081,-5.314L-36.118,-5.248C-36.161,-5.17 -36.147,-5.089 -36.075,-5.003C-36.028,-4.948 -35.891,-4.857 -35.664,-4.731L-33.224,-3.373C-33.031,-3.265 -32.9,-3.2 -32.833,-3.178C-32.781,-3.162 -32.73,-3.158 -32.681,-3.168C-32.614,-3.184 -32.568,-3.214 -32.543,-3.258L-32.507,-3.325L-32.403,-3.267L-32.85,-2.464L-32.954,-2.521L-32.916,-2.589C-32.891,-2.634 -32.889,-2.687 -32.91,-2.751C-32.923,-2.796 -32.958,-2.841 -33.012,-2.885C-33.066,-2.93 -33.186,-3.005 -33.371,-3.108L-34.454,-3.71ZM6.793,-4.021L6.296,-4.58L6.384,-4.659L6.412,-4.628C6.43,-4.608 6.475,-4.594 6.547,-4.587C6.618,-4.581 6.702,-4.591 6.799,-4.62C6.896,-4.648 7.043,-4.708 7.24,-4.798L8.81,-5.504L9.621,-6.226C9.819,-6.403 9.934,-6.524 9.964,-6.59C10.004,-6.679 9.995,-6.756 9.938,-6.821L9.891,-6.873L9.979,-6.951L10.585,-6.271L10.497,-6.192L10.447,-6.249C10.386,-6.317 10.302,-6.328 10.194,-6.282C10.128,-6.255 10.004,-6.16 9.823,-5.999L9.058,-5.318L8.095,-3.673C7.983,-3.48 7.915,-3.356 7.892,-3.302C7.868,-3.248 7.855,-3.167 7.851,-3.059C7.849,-3.029 7.862,-3 7.888,-2.97L7.8,-2.891L7.19,-3.576L7.279,-3.655L7.31,-3.619C7.343,-3.583 7.39,-3.564 7.453,-3.564C7.516,-3.563 7.582,-3.595 7.652,-3.657C7.709,-3.708 7.791,-3.824 7.897,-4.005L8.642,-5.267L7.366,-4.694C7.174,-4.608 7.042,-4.533 6.969,-4.468C6.924,-4.428 6.889,-4.387 6.865,-4.344C6.839,-4.302 6.828,-4.261 6.826,-4.222C6.825,-4.183 6.844,-4.143 6.882,-4.1L6.793,-4.021ZM12.949,-1.14L12.964,-1.195L14.155,-1.208L14.399,0.426L14.282,0.446L14.27,0.366C14.257,0.277 14.188,0.223 14.065,0.204C13.994,0.193 13.835,0.209 13.592,0.25L10.822,0.71C10.554,0.755 10.388,0.796 10.325,0.837C10.239,0.893 10.201,0.961 10.213,1.04L10.225,1.12L10.107,1.14L9.965,0.184L10.083,0.164C10.097,0.277 10.129,0.352 10.18,0.39C10.231,0.428 10.292,0.449 10.363,0.454C10.432,0.459 10.595,0.441 10.85,0.398L13.546,-0.05C13.721,-0.078 13.84,-0.107 13.904,-0.135C13.946,-0.154 13.975,-0.178 13.993,-0.208C14.009,-0.238 14.009,-0.32 13.988,-0.456L13.965,-0.61C13.941,-0.772 13.901,-0.882 13.842,-0.939C13.784,-0.997 13.689,-1.042 13.558,-1.076C13.426,-1.108 13.223,-1.13 12.949,-1.14M9.245,-0.731C9.137,-0.988 9.239,-1.293 9.553,-1.647C9.867,-2.001 10.317,-2.302 10.905,-2.55C11.511,-2.806 12.054,-2.923 12.533,-2.902C13.014,-2.881 13.31,-2.736 13.423,-2.467C13.538,-2.195 13.439,-1.884 13.128,-1.535C12.815,-1.185 12.349,-0.879 11.73,-0.618C11.097,-0.351 10.536,-0.24 10.046,-0.285C9.62,-0.324 9.354,-0.473 9.245,-0.731M9.471,-0.794C9.545,-0.617 9.738,-0.531 10.047,-0.536C10.433,-0.542 10.942,-0.679 11.578,-0.947C12.229,-1.222 12.7,-1.502 12.993,-1.788C13.215,-2.006 13.289,-2.203 13.216,-2.376C13.138,-2.562 12.926,-2.654 12.584,-2.651C12.24,-2.649 11.754,-2.515 11.125,-2.25C10.444,-1.962 9.963,-1.681 9.684,-1.406C9.462,-1.186 9.391,-0.983 9.471,-0.794M10.704,5.288L10.693,4.706L13.914,3.333L11.419,3.38C11.153,3.385 10.987,3.404 10.922,3.434C10.833,3.475 10.79,3.538 10.791,3.622L10.793,3.696L10.674,3.699L10.66,2.952L10.778,2.95L10.78,3.026C10.782,3.117 10.839,3.18 10.949,3.216C11.019,3.238 11.173,3.246 11.416,3.241L15.062,3.172L15.063,3.229L11.606,4.709L14.271,4.658C14.537,4.653 14.702,4.636 14.768,4.606C14.856,4.565 14.9,4.502 14.898,4.419L14.897,4.343L15.014,4.341L15.028,5.087L14.911,5.089L14.91,5.015C14.908,4.923 14.851,4.86 14.739,4.823C14.671,4.802 14.515,4.793 14.274,4.798L11.265,4.855C11.119,4.92 11.023,4.969 10.977,5.002C10.93,5.035 10.888,5.083 10.849,5.146C10.831,5.177 10.822,5.224 10.823,5.286L10.704,5.288ZM10.184,1.974C10.179,1.695 10.387,1.45 10.81,1.238C11.233,1.026 11.762,0.913 12.4,0.901C13.058,0.889 13.606,0.981 14.043,1.179C14.482,1.376 14.703,1.621 14.708,1.913C14.714,2.208 14.506,2.46 14.088,2.669C13.668,2.878 13.122,2.989 12.45,3.001C11.763,3.015 11.201,2.909 10.762,2.686C10.382,2.491 10.19,2.254 10.184,1.974M10.417,1.999C10.42,2.191 10.567,2.342 10.857,2.453C11.217,2.59 11.741,2.653 12.43,2.64C13.137,2.626 13.679,2.541 14.056,2.384C14.344,2.263 14.486,2.109 14.482,1.92C14.478,1.719 14.316,1.555 13.997,1.43C13.677,1.305 13.176,1.249 12.493,1.262C11.754,1.276 11.203,1.359 10.842,1.51C10.555,1.632 10.413,1.795 10.417,1.999M8.706,10.801L9.62,11.252L9.592,11.306C9.428,11.232 9.308,11.188 9.23,11.169C9.105,11.141 9.005,11.137 8.928,11.158C8.851,11.179 8.792,11.228 8.751,11.306L8.613,11.574L11.555,13.112C11.79,13.235 11.945,13.299 12.016,13.305C12.114,13.311 12.182,13.277 12.22,13.204L12.254,13.138L12.359,13.193L11.943,13.998L11.838,13.943L11.873,13.875C11.915,13.796 11.894,13.713 11.813,13.628C11.763,13.576 11.63,13.493 11.415,13.38L8.474,11.843L8.356,12.071C8.31,12.16 8.291,12.229 8.298,12.28C8.308,12.348 8.357,12.426 8.441,12.514C8.526,12.602 8.652,12.694 8.823,12.792L8.796,12.845L7.905,12.35L8.706,10.801ZM9.098,10.134L10.644,10.882L10.846,10.459C10.899,10.349 10.9,10.26 10.851,10.19C10.786,10.098 10.643,9.995 10.422,9.882L10.447,9.828L11.81,10.488L11.784,10.54C11.588,10.461 11.459,10.416 11.399,10.403C11.324,10.388 11.258,10.39 11.201,10.41C11.144,10.431 11.095,10.48 11.057,10.561L10.855,10.985L12.146,11.609C12.319,11.693 12.427,11.739 12.467,11.75C12.508,11.761 12.544,11.762 12.576,11.754C12.607,11.746 12.635,11.714 12.66,11.662L12.816,11.335C12.868,11.226 12.891,11.139 12.883,11.075C12.876,11.011 12.838,10.935 12.769,10.845C12.678,10.729 12.526,10.582 12.315,10.403L12.342,10.347L13.245,10.987L12.536,12.473L12.43,12.421L12.463,12.353C12.484,12.308 12.482,12.254 12.457,12.191C12.441,12.146 12.405,12.104 12.349,12.063C12.292,12.022 12.168,11.956 11.978,11.863L9.435,10.634C9.187,10.514 9.029,10.452 8.959,10.449C8.866,10.446 8.8,10.484 8.762,10.563L8.73,10.632L8.622,10.58L9.33,9.095L10.198,9.488L10.171,9.543C9.956,9.464 9.804,9.417 9.716,9.404C9.628,9.391 9.552,9.398 9.489,9.426C9.442,9.45 9.396,9.51 9.35,9.606L9.098,10.134ZM9.919,7.726L11.371,7.958L11.361,8.004C10.917,7.983 10.588,8.011 10.374,8.089C10.16,8.167 10.036,8.286 10.003,8.447C9.975,8.582 10.021,8.718 10.142,8.854C10.263,8.991 10.473,9.12 10.772,9.243C11.073,9.366 11.456,9.472 11.921,9.562C12.304,9.637 12.644,9.672 12.937,9.667C13.23,9.663 13.464,9.616 13.64,9.526C13.815,9.438 13.918,9.317 13.948,9.165C13.976,9.033 13.941,8.906 13.844,8.782C13.747,8.658 13.536,8.502 13.211,8.314L13.283,8.279C13.639,8.454 13.891,8.627 14.039,8.796C14.185,8.966 14.24,9.144 14.201,9.331C14.131,9.667 13.817,9.877 13.257,9.961C12.84,10.023 12.369,10.004 11.843,9.903C11.421,9.821 11.04,9.7 10.704,9.541C10.369,9.381 10.12,9.203 9.958,9.006C9.796,8.809 9.735,8.617 9.774,8.428C9.804,8.282 9.909,8.15 10.088,8.037C10.143,8.004 10.172,7.978 10.176,7.96C10.181,7.934 10.166,7.906 10.131,7.879C10.081,7.842 10.006,7.808 9.908,7.778L9.919,7.726ZM12.227,7.224L12.411,6.278L11.194,6.057C10.977,6.017 10.832,5.998 10.761,5.998C10.706,5.999 10.657,6.012 10.614,6.037C10.555,6.071 10.522,6.112 10.513,6.16L10.499,6.232L10.382,6.211L10.551,5.34L10.668,5.361L10.654,5.433C10.645,5.481 10.659,5.531 10.699,5.583C10.726,5.621 10.773,5.652 10.838,5.676C10.905,5.7 11.042,5.731 11.25,5.768L13.995,6.268C14.21,6.307 14.354,6.327 14.425,6.326C14.479,6.326 14.528,6.314 14.571,6.29C14.63,6.254 14.665,6.213 14.675,6.166L14.689,6.093L14.804,6.114L14.635,6.984L14.519,6.963L14.533,6.892C14.549,6.809 14.51,6.738 14.414,6.682C14.352,6.645 14.193,6.603 13.939,6.556L12.644,6.321L12.459,7.266L13.755,7.502C13.97,7.541 14.113,7.561 14.185,7.56C14.239,7.56 14.288,7.547 14.332,7.522C14.39,7.488 14.424,7.447 14.434,7.399L14.448,7.325L14.564,7.346L14.394,8.218L14.279,8.197L14.293,8.125C14.309,8.041 14.269,7.971 14.174,7.914C14.112,7.879 13.953,7.837 13.699,7.79L10.954,7.291C10.736,7.251 10.592,7.232 10.521,7.232C10.466,7.233 10.418,7.245 10.374,7.269C10.316,7.304 10.282,7.345 10.272,7.393L10.258,7.466L10.142,7.444L10.312,6.572L10.428,6.593L10.414,6.667C10.404,6.715 10.419,6.765 10.459,6.817C10.486,6.854 10.533,6.885 10.598,6.909C10.664,6.934 10.801,6.965 11.01,7.003L12.227,7.224ZM4.449,17.811L3.817,18.294L4.104,18.898C4.173,19.047 4.233,19.153 4.282,19.217C4.32,19.267 4.365,19.301 4.418,19.321C4.471,19.342 4.541,19.327 4.629,19.279L4.697,19.368L4.183,19.761L4.114,19.672C4.164,19.595 4.184,19.53 4.174,19.475C4.156,19.367 4.08,19.174 3.948,18.898L2.452,15.748L2.493,15.716L5.155,18.021C5.369,18.207 5.52,18.318 5.607,18.355C5.695,18.392 5.776,18.389 5.848,18.347L5.917,18.436L5.272,18.929L5.204,18.839C5.264,18.783 5.291,18.727 5.285,18.672C5.28,18.618 5.257,18.564 5.216,18.51C5.161,18.438 5.059,18.339 4.91,18.209L4.449,17.811ZM4.278,17.657L2.984,16.538L3.717,18.085L4.278,17.657ZM3.462,15.094L3.904,14.755L6.791,16.464L5.34,14.564C5.185,14.361 5.076,14.243 5.016,14.21C4.934,14.166 4.861,14.167 4.797,14.216L4.741,14.259L4.671,14.169L5.24,13.735L5.309,13.825L5.251,13.87C5.182,13.923 5.165,14.002 5.201,14.108C5.223,14.173 5.304,14.298 5.446,14.483L7.567,17.259L7.523,17.292L4.42,15.462L5.971,17.491C6.125,17.694 6.232,17.812 6.292,17.845C6.375,17.89 6.448,17.888 6.511,17.84L6.569,17.796L6.637,17.885L6.069,18.32L6.001,18.23L6.057,18.187C6.127,18.134 6.144,18.054 6.109,17.947C6.087,17.882 6.005,17.756 5.864,17.572L4.114,15.281C3.981,15.205 3.888,15.159 3.837,15.142C3.785,15.125 3.724,15.119 3.653,15.125C3.619,15.128 3.578,15.148 3.531,15.184L3.462,15.094ZM7.902,16.919L7.833,16.83L7.894,16.783C7.964,16.73 7.978,16.648 7.939,16.536C7.915,16.469 7.833,16.343 7.691,16.157L6.064,14.028C5.907,13.822 5.797,13.703 5.736,13.668C5.65,13.621 5.576,13.621 5.515,13.668L5.453,13.715L5.384,13.625L6.049,13.117C6.292,12.93 6.521,12.845 6.734,12.858C6.946,12.873 7.191,12.982 7.468,13.183C7.745,13.385 8.014,13.656 8.275,13.998C8.625,14.456 8.849,14.893 8.946,15.306C9.053,15.767 8.948,16.12 8.631,16.361L7.902,16.919ZM8.185,16.325C8.322,16.293 8.425,16.25 8.494,16.197C8.68,16.055 8.734,15.805 8.654,15.447C8.576,15.089 8.364,14.684 8.018,14.232C7.671,13.777 7.335,13.465 7.012,13.297C6.688,13.128 6.431,13.118 6.238,13.265C6.166,13.32 6.102,13.406 6.045,13.524L8.185,16.325ZM7.937,-3.029L9.002,-3.884L9.035,-3.839C8.795,-3.592 8.631,-3.382 8.545,-3.208C8.421,-2.958 8.418,-2.752 8.537,-2.591C8.7,-2.371 8.998,-2.333 9.433,-2.478C9.8,-2.601 10.188,-2.813 10.597,-3.115C10.929,-3.36 11.209,-3.616 11.435,-3.881C11.662,-4.148 11.802,-4.379 11.852,-4.576C11.904,-4.773 11.89,-4.926 11.81,-5.035C11.763,-5.099 11.701,-5.148 11.624,-5.183C11.548,-5.219 11.458,-5.24 11.354,-5.248L10.347,-4.505C10.173,-4.376 10.064,-4.286 10.019,-4.233C9.975,-4.18 9.949,-4.129 9.942,-4.081C9.933,-4.032 9.955,-3.973 10.006,-3.904L9.909,-3.832L9.416,-4.5L9.513,-4.572L9.537,-4.54C9.586,-4.474 9.664,-4.462 9.771,-4.503C9.847,-4.532 9.979,-4.617 10.164,-4.754L11.23,-5.54C11.408,-5.521 11.557,-5.482 11.677,-5.424C11.796,-5.365 11.9,-5.279 11.985,-5.163C12.231,-4.829 12.203,-4.417 11.899,-3.925C11.671,-3.556 11.347,-3.216 10.924,-2.904C10.618,-2.678 10.297,-2.498 9.962,-2.363C9.565,-2.203 9.22,-2.132 8.929,-2.15C8.686,-2.167 8.503,-2.262 8.376,-2.434C8.329,-2.497 8.297,-2.561 8.28,-2.628C8.262,-2.694 8.254,-2.801 8.254,-2.946C8.256,-3.02 8.249,-3.066 8.238,-3.081C8.226,-3.097 8.201,-3.1 8.162,-3.09C8.124,-3.079 8.061,-3.043 7.972,-2.981L7.937,-3.029Z" style="fill:rgb(34,24,21);"/>
        </g>
        <g transform="matrix(1,0,0,1,216.531,94.6851)">
            <path d="M0,11.928C-3.281,11.928 -5.941,9.268 -5.941,5.987C-5.941,2.705 -3.281,0.045 0,0.045C3.281,0.045 5.941,2.705 5.941,5.987C5.941,9.268 3.281,11.928 0,11.928ZM7.021,5.987C7.021,5.639 6.988,5.3 6.939,4.966L8.784,3.944L7.672,1.281L5.677,1.866C5.261,1.295 4.762,0.79 4.196,0.367L4.783,-1.676L2.114,-2.772L1.112,-0.938C0.749,-0.996 0.379,-1.035 0,-1.035C-0.336,-1.035 -0.665,-1.003 -0.989,-0.957L-2.021,-2.82L-4.683,-1.708L-4.096,0.292C-4.67,0.705 -5.176,1.203 -5.602,1.767L-7.64,1.181L-8.737,3.85L-6.92,4.843C-6.981,5.216 -7.021,5.596 -7.021,5.987C-7.021,6.32 -6.99,6.645 -6.945,6.966L-8.784,7.985L-7.672,10.647L-5.704,10.07C-5.286,10.653 -4.781,11.168 -4.207,11.599L-4.783,13.604L-2.114,14.701L-1.134,12.908C-0.764,12.969 -0.387,13.008 0,13.008C0.345,13.008 0.68,12.975 1.012,12.927L2.021,14.748L4.683,13.636L4.107,11.673C4.689,11.252 5.201,10.745 5.63,10.17L7.64,10.747L8.737,8.078L6.926,7.089C6.983,6.729 7.021,6.363 7.021,5.987Z" style="fill:none;fill-rule:nonzero;stroke:rgb(29,32,136);stroke-width:0.75px;"/>
        </g>
        <g transform="matrix(0,-1,-1,0,216.531,95.4366)">
            <ellipse cx="-5.213" cy="0" rx="5.213" ry="5.213" style="fill:none;stroke:rgb(29,32,136);stroke-width:0.25px;"/>
        </g>
        <g transform="matrix(1,0,0,1,211.318,100.649)">
            <path d="M0,0L10.425,0" style="fill:none;fill-rule:nonzero;stroke:rgb(29,32,136);stroke-width:0.25px;"/>
        </g>
        <g transform="matrix(1,0,0,1,212.019,103.252)">
            <path d="M0,0L9.025,0" style="fill:none;fill-rule:nonzero;stroke:rgb(29,32,136);stroke-width:0.25px;"/>
        </g>
        <g transform="matrix(1,0,0,1,212.019,97.9419)">
            <path d="M0,0L9.025,0" style="fill:none;fill-rule:nonzero;stroke:rgb(29,32,136);stroke-width:0.25px;"/>
        </g>
        <g transform="matrix(1,0,0,1,216.531,105.855)">
            <path d="M0,-10.418C-1.109,-10.412 -1.892,-8.704 -2.223,-7.983C-2.709,-6.923 -2.819,-5.943 -2.836,-5.3C-2.803,-4.693 -2.631,-3.796 -2.223,-2.77C-1.684,-1.414 -0.844,-0.696 0,0.007C0.512,-0.364 1.476,-1.169 2.146,-2.54C2.697,-3.667 2.814,-4.696 2.836,-5.3C2.823,-5.917 2.725,-6.831 2.3,-7.829C2.031,-8.459 1.193,-10.425 0,-10.418Z" style="fill:none;fill-rule:nonzero;stroke:rgb(29,32,136);stroke-width:0.25px;"/>
        </g>
        <g transform="matrix(1,0,0,1,228.166,110.484)">
            <path d="M0,3.167L-22.997,3.167C-23.551,2.766 -24.148,2.292 -24.76,1.734C-25.417,1.136 -25.976,0.546 -26.446,0L2.606,0C2.327,0.54 1.921,1.199 1.339,1.877C0.875,2.417 0.409,2.841 0,3.167" style="fill:rgb(29,32,136);"/>
        </g>
        <g>
            <text x="205.371px" y="112.857px" style="font-family:'STKaitiSC-Regular', 'Kaiti SC';font-size:2.48px;fill:white;"></text>
            <g transform="matrix(2,0,0,2,218.407,115.447)">
            </g>
            <text x="214.655px" y="115.447px" style="font-family:'STSong';font-weight:300;font-size:2px;fill:rgb(29,32,136);">1953</text>
        </g>
        <g transform="matrix(0.396295,0.918123,0.918123,-0.396295,219.752,97.232)">
            <path d="M-2.835,-4.312L6.557,-4.312L2.32,-2.483L1.369,-6.126L-2.835,-4.312Z" style="fill:rgb(230,0,18);fill-rule:nonzero;stroke:rgb(230,0,18);stroke-width:1px;"/>
        </g>
    </g>
</svg>
